<?xml version="1.0" encoding="iso-8859-1"?>
<!-- Generator: Adobe Illustrator 19.0.0, SVG Export Plug-In . SVG Version: 6.00 Build 0)  -->
<svg version="1.1" id="Capa_1" xmlns="http://www.w3.org/2000/svg" xmlns:xlink="http://www.w3.org/1999/xlink" x="0px" y="0px"
	 viewBox="0 0 490 490" style="enable-background:new 0 0 490 490;" xml:space="preserve">
<g>
	<path d="M479.574,93.153h-56.352V43.01c0-5.762-4.669-10.425-10.426-10.425H10.426C4.669,32.585,0,37.248,0,43.01v323.751
		c0,5.763,4.669,10.426,10.426,10.426h142.104l-37.548,64.559c-4.714,9.948,3.764,15.668,9.01,15.668h175.233
		c6.264,0,13.776-6.794,9.011-15.668l-37.548-64.559h53.838v8.624c0,5.762,4.667,10.426,10.426,10.426h144.623
		c5.758,0,10.426-4.663,10.426-10.426V103.579C490,97.816,485.333,93.153,479.574,93.153z M469.149,304.076H345.377V114.004h123.772
		V304.076z M281.103,436.564H142.115l34.534-59.376h69.919L281.103,436.564z M20.851,356.336v-302.9h381.521v39.717h-67.42
		c-5.758,0-10.426,4.662-10.426,10.426v252.758H20.851z M469.149,375.386H345.377v-50.458h123.772V375.386z"/>
	<rect x="394.893" y="339.731" width="24.735" height="20.851"/>
</g>
<g>
</g>
<g>
</g>
<g>
</g>
<g>
</g>
<g>
</g>
<g>
</g>
<g>
</g>
<g>
</g>
<g>
</g>
<g>
</g>
<g>
</g>
<g>
</g>
<g>
</g>
<g>
</g>
<g>
</g>
</svg>
