<?xml version="1.0" encoding="iso-8859-1"?>
<!-- Generator: Adobe Illustrator 19.0.0, SVG Export Plug-In . SVG Version: 6.00 Build 0)  -->
<svg version="1.1" id="Layer_1" xmlns="http://www.w3.org/2000/svg" xmlns:xlink="http://www.w3.org/1999/xlink" x="0px" y="0px"
	 viewBox="0 0 511.971 511.971" style="enable-background:new 0 0 511.971 511.971;" xml:space="preserve">
<g transform="translate(1 1)">
	<g>
		<g>
			<path d="M379.237,61.264c1.707-4.267-1.707-9.387-5.973-10.24c-4.267-1.707-9.387,1.707-10.24,5.973l-8.533,34.133
				c-1.707,4.267,1.707,9.387,5.973,10.24c0,0,0.853,0,1.707,0c3.413,0,7.68-2.56,8.533-5.973L379.237,61.264z"/>
			<path d="M479.931,88.571c-1.707-3.413-6.827-5.12-11.093-3.413l-5.502,2.751c-0.995-6.486-2.565-12.84-4.738-18.964
				c-4.349-12.651-10.734-23.814-18.773-33.28l13.653-13.653c3.413-3.413,3.413-8.533,0-11.947c-3.413-3.413-8.533-3.413-11.947,0
				L427.804,23.79c-6.666-5.504-14.067-10.119-22.114-13.726c-24.747-10.24-52.907-9.387-78.507,3.413
				c-0.616,0.298-1.228,0.606-1.839,0.917l-6.694-11.157c-2.56-4.267-7.68-5.12-11.947-3.413c-4.267,2.56-5.12,7.68-3.413,11.947
				l7.106,11.844c-17.169,12.6-31.266,30.456-40.386,51.303c-4.543,10.599-9.082,23.221-10.049,43.81
				c-9.802,0.657-19.334,2.455-28.483,5.288l-5.842-17.525c-1.707-4.267-6.827-6.827-11.093-5.12s-6.827,6.827-5.12,11.093
				l5.925,17.774c-11.813,5.504-22.783,12.796-32.639,21.554c-11.879-7.838-17.875-10.79-24.486-13.728
				c-10.526-4.348-21.417-6.405-32.005-6.425l-2.982-14.908c-0.853-5.12-5.973-7.68-10.24-6.827c-5.12,0.853-7.68,5.973-6.827,10.24
				l2.671,13.355c-21.763,4.805-40.313,18.705-48.751,39.552c-1.982,4.404-3.327,8.981-4.103,13.653H37.904
				c-5.12,0-8.533,3.413-8.533,8.533s3.413,8.533,8.533,8.533h17.715c0.927,8.054,3.336,16.133,7.031,23.893
				c5.288,10.095,12.473,18.836,21.095,25.918l-10.001,13.335c-2.56,3.413-1.707,9.387,1.707,11.947
				c1.707,0.853,3.413,1.707,5.12,1.707c2.56,0,5.12-0.853,6.827-3.413l10.58-14.107c2.652,1.414,5.379,2.716,8.193,3.867
				c3.413,1.707,7.68,2.56,11.947,4.267c3.244,1.297,7.97,2.597,13.797,4.644c0.5,12.797,2.368,25.653,5.901,38.876h-26.524
				c-11.947,0-22.187,10.24-22.187,21.333v7.68c0,11.947,10.24,22.187,22.187,22.187h5.483l45.609,128h-56.212
				c-5.12,0-8.533,3.413-8.533,8.533s3.413,8.533,8.533,8.533h62.293h199.68h53.76c5.12,0,8.533-3.413,8.533-8.533
				s-3.413-8.533-8.533-8.533h-47.742l45.137-128h6.018c11.947,0,22.187-10.24,23.04-21.333v-7.68
				c0-11.947-10.24-22.187-22.187-22.187h-27.287c4.107-15.004,5.93-30.102,5.952-45.794l22.189-14.793
				c4.267-2.56,5.12-7.68,2.56-11.947c-2.56-4.267-7.68-5.12-11.947-2.56l-13.911,9.274c-0.778-6.858-1.965-13.553-3.522-20.062
				c4.104-5.228,8.208-10.024,12.313-14.812c16.213-19.627,32.427-37.547,41.813-60.587c6.668-15.24,10.142-31.543,10.282-47.575
				c6.611-3.412,11.905-6.185,11.905-6.185C479.931,97.957,481.637,92.837,479.931,88.571z M180.411,493.904l-25.6-75.947
				l6.827,5.973c3.413,2.56,13.653,10.24,30.72,10.24c8.533,0,15.36-4.267,21.333-8.533c2.56-2.56,5.12-4.267,7.68-5.12
				c13.653-5.12,17.067-4.267,23.893,2.56l33.28,34.987c5.973,6.827,16.213,11.093,28.16,10.24c10.24,0,20.48-4.267,29.867-11.947
				l12.8-11.093c3.413-2.56,7.68-3.413,11.947-0.853l10.24,5.973l-15.36,43.52H180.411z M377.06,434.858l-8.916-4.954
				c-9.387-5.973-22.187-5.12-31.573,2.56l-12.8,11.093c-4.267,3.413-11.093,8.533-19.627,8.533c-5.973,0-11.947-1.707-14.507-5.12
				l-33.28-35.84c-14.507-13.653-26.453-12.8-42.667-5.973c-4.267,1.707-7.68,4.267-11.093,6.827
				c-4.267,3.413-8.533,5.973-11.947,5.973c-11.093,0-17.067-5.12-19.627-6.827l-28.776-25.234l-7.064-19.992h266.24L377.06,434.858
				z M431.291,336.037v7.68c0,2.56-2.56,5.12-5.12,5.12h-0.853H111.291c-2.56,0-5.12-2.56-5.12-4.267v-7.68
				c0-5.973,5.12-5.973,5.12-5.973h314.88C428.731,330.917,431.291,333.477,431.291,336.037z M112.144,250.704
				c-1.264-0.492-2.497-1.031-3.714-1.59l4.567-6.09c2.56-3.413,1.707-9.387-1.707-11.947s-9.387-1.707-11.947,1.707l-5.414,7.219
				c-6.702-5.58-12.11-12.399-15.919-20.018c-2.663-5.325-4.404-10.78-5.249-16.213h7.809c5.12,0,8.533-3.413,8.533-8.533
				s-3.413-8.533-8.533-8.533h-7.429c0.544-2.612,1.309-5.179,2.309-7.68c6.06-15.488,20.094-25.656,36.644-29.258l2.609,13.045
				c0.853,4.267,4.267,6.827,8.533,6.827c0.853,0,0.853,0,1.707,0c5.12-0.853,7.68-5.973,6.827-10.24l-2.195-10.974
				c7.291,0.413,14.672,1.965,22.675,4.147c5.097,2.549,9.353,5.1,18.652,11.017c-21.919,24.583-36.263,57.373-38.745,93.724
				c-3.256-1.556-6.477-2.38-8.921-3.194C118.971,253.264,115.557,252.411,112.144,250.704z M363.877,285.691
				c1.707,1.707,4.267,3.413,6.827,3.413c1.707,0,3.413-0.853,5.12-0.853l10.615-7.077c-0.766,10.153-2.496,20.771-5.495,30.97
				H154.811c-4.162-14.982-5.883-28.342-5.965-42.451c0.169-38.168,15.494-74.597,40.952-100.055l7.68-7.68l-0.266-0.186
				c7.271-6.026,15.174-11.15,23.571-15.232l5.708,17.125c0.853,3.413,4.267,5.973,7.68,5.973c0.853,0,1.707,0,3.413-0.853
				c4.267-1.707,6.827-6.827,5.12-11.093l-5.828-17.484c10.024-3.059,20.561-4.702,31.428-4.702c1.555,0,3.104,0.039,4.647,0.103
				c0.166,0.007,0.331,0.013,0.497,0.02c43.821,2.026,82.318,29.854,101.573,72.513c6.847,15.689,10.971,33.262,11.76,52.042
				l-20.343,13.562C362.171,276.304,361.317,281.424,363.877,285.691z M438.971,146.597c-8.533,20.48-23.04,36.693-39.253,56.32
				c-1.573,2.36-3.864,4.003-5.55,6.249c-12.882-33.93-36.628-61.074-66.782-76.544c-0.113-0.059-0.229-0.114-0.342-0.173
				c-0.823-0.419-1.649-0.833-2.481-1.234c-14.773-7.249-30.888-11.674-47.725-12.778c0.853-17.067,4.267-27.307,7.68-36.693
				c7.723-18.02,19.817-33.121,34.446-43.853l9.928,16.546c1.707,2.56,5.12,4.267,7.68,4.267c1.707,0,3.413,0,4.267-0.853
				c4.267-2.56,5.12-7.68,3.413-11.947l-10.24-17.067l0,0c21.333-10.24,44.373-11.093,64.853-2.56
				c6.049,2.521,11.638,5.803,16.728,9.725l-8.195,8.195c-3.413,3.413-3.413,8.533,0,11.947c1.707,1.707,3.413,2.56,5.973,2.56
				s4.267-0.853,5.973-2.56l8.399-8.399c6.254,7.556,11.216,16.423,14.641,26.319c2.376,7.129,3.931,14.503,4.648,21.996
				l-12.328,6.164c-3.413,1.707-5.12,6.827-3.413,11.093c1.707,3.413,4.267,5.12,7.68,5.12c0.484,0,3.721-1.514,8.105-3.68
				C446.107,125.459,443.431,136.19,438.971,146.597z"/>
			<path d="M410.811,126.971l-34.133,8.533c-4.267,0.853-6.827,5.973-5.973,10.24c0.853,4.267,5.12,6.827,8.533,6.827
				c0.853,0,1.707,0,1.707-0.853l34.133-8.533c4.267-0.853,6.827-5.973,5.973-10.24S415.077,126.117,410.811,126.971z"/>
			<path d="M206.011,231.931c-3.413-3.413-8.533-3.413-11.947,0s-3.413,8.533,0,11.947l25.6,25.6c1.707,1.707,3.413,2.56,5.973,2.56
				c2.56,0,4.267-0.853,5.973-2.56c3.413-3.413,3.413-8.533,0-11.947L206.011,231.931z"/>
			<path d="M321.211,186.704c-5.12-0.853-9.387,2.56-10.24,6.827l-8.533,42.667c-0.853,5.12,2.56,9.387,6.827,10.24
				c0.853,0,0.853,0,1.707,0c4.267,0,7.68-2.56,8.533-6.827l8.533-42.667C328.891,191.824,325.477,187.557,321.211,186.704z"/>
		</g>
	</g>
</g>
<g>
</g>
<g>
</g>
<g>
</g>
<g>
</g>
<g>
</g>
<g>
</g>
<g>
</g>
<g>
</g>
<g>
</g>
<g>
</g>
<g>
</g>
<g>
</g>
<g>
</g>
<g>
</g>
<g>
</g>
</svg>
