<svg xmlns="http://www.w3.org/2000/svg" viewBox="-233 356.9 128 128" enable-background="new -233 356.9 128 128"><path d="M-233 356.9h128v128h-128v-128z"/><path fill="#fff" d="M-183.9 388h12.4v56.6h-12.4v-56.6zm29.3 15.6v5.8h.2c1.4-2.3 3.3-4.1 5.5-5.2 2.3-1.1 4.6-1.7 7-1.7 3 0 5.5.4 7.4 1.2 1.9.8 3.4 2 4.5 3.4s1.9 3.2 2.3 5.3c.4 2.1.7 4.4.7 7v25.2h-11v-23.1c0-3.4-.6-5.9-1.5-7.5-1.1-1.7-2.9-2.5-5.6-2.5-3.1 0-5.3.9-6.6 2.8-1.3 1.8-2.1 4.9-2.1 9v21.5h-11.3v-41h10.5v-.2zm-60.8 10.9l20 10-20 10v-20z"/></svg>