<?xml version="1.0" encoding="iso-8859-1"?>
<!-- Generator: Adobe Illustrator 19.0.0, SVG Export Plug-In . SVG Version: 6.00 Build 0)  -->
<svg version="1.1" id="Layer_1" xmlns="http://www.w3.org/2000/svg" xmlns:xlink="http://www.w3.org/1999/xlink" x="0px" y="0px"
	 viewBox="0 0 511.988 511.988" style="enable-background:new 0 0 511.988 511.988;" xml:space="preserve">
<g>
	<g>
		<g>
			<path d="M507.367,290c-14.95-20.838-30.123-21.171-68.079-1.195l-73.583,44.988c-10.914,5.803-33.297,7.543-55.006,7.91
				c3.866-8.03,2.133-17.613-5.154-28.493c-13.38-19.951-36.301-31.855-61.338-31.855h-33.28c-18.082,0-35.439-5.589-48.905-15.727
				c-30.601-23.084-81.782-26.367-102.29-26.72v-17.048c0-4.71-3.814-8.533-8.533-8.533H8.533c-4.71,0-8.533,3.823-8.533,8.533v256
				c0,4.71,3.823,8.533,8.533,8.533H51.2c4.719,0,8.533-3.823,8.533-8.533v-17.067h110.934c17.408,0,34.97-1.331,52.19-3.942
				l110.618-16.819c4.028-0.051,8.107-0.529,11.742-1.348c10.197-1.434,19.925-6.298,28.177-14.08l129.34-100.727l0.205-0.162
				C513.008,315.369,514.953,300.564,507.367,290z M42.667,469.328h-25.6V230.394h25.6V469.328z M492.135,310.505l-129.562,100.89
				l-0.657,0.572c-5.717,5.47-12.314,8.866-19.917,9.967c-3.106,0.683-6.195,1.033-9.199,1.033l-112.503,17.007
				c-16.375,2.492-33.075,3.755-49.63,3.755H59.734V256.003c18.918,0.401,65.758,3.447,92.023,23.253
				c16.393,12.356,37.402,19.166,59.17,19.166h33.28c19.337,0,36.958,9.079,47.155,24.286c3.593,5.35,5.009,9.796,3.806,11.878
				c-2.278,3.942-12.851,6.374-23.578,6.844c-3.49-0.06-6.673-0.102-9.463-0.102h-82.927c0,0,0,0-0.001,0
				c-26.716,0.001-42.664,12.758-42.664,34.133c0,4.71,3.814,8.533,8.533,8.533s8.533-3.823,8.533-8.533
				c0-4.224,0-17.067,25.6-17.067h82.632c1.915,0.121,5.695,0.298,10.431,0.111c1.468,0.026,2.987,0.06,4.548,0.077
				c40.047,0.734,77.594,0.538,97.348-9.975l73.54-44.971c35.191-18.492,38.733-13.534,45.798-3.678
				C495.864,303.235,495.25,307.851,492.135,310.505z"/>
			<path d="M162.136,230.394h290.133c14.114,0,25.6-11.486,25.6-25.6v-153.6c0-14.114-11.486-25.6-25.6-25.6H162.136
				c-14.114,0-25.6,11.486-25.6,25.6v153.6C136.536,218.908,148.022,230.394,162.136,230.394z M460.803,102.394h-307.2V85.328h307.2
				V102.394z M452.269,213.328H162.136c-4.71,0-8.533-3.831-8.533-8.533v-85.333h307.2v85.333
				C460.803,209.496,456.98,213.328,452.269,213.328z M162.136,42.661h290.133c4.71,0,8.533,3.831,8.533,8.533v17.067h-307.2V51.194
				C153.603,46.492,157.425,42.661,162.136,42.661z"/>
			<path d="M247.469,145.061h-51.2c-4.719,0-8.533,3.823-8.533,8.533c0,4.71,3.814,8.533,8.533,8.533h51.2
				c4.719,0,8.533-3.823,8.533-8.533C256.003,148.884,252.188,145.061,247.469,145.061z"/>
			<path d="M298.669,145.061h-17.067c-4.719,0-8.533,3.823-8.533,8.533c0,4.71,3.814,8.533,8.533,8.533h17.067
				c4.719,0,8.533-3.823,8.533-8.533C307.203,148.884,303.388,145.061,298.669,145.061z"/>
			<path d="M426.669,145.061h-51.2c-9.412,0-17.067,7.654-17.067,17.067v17.067c0,9.412,7.654,17.067,17.067,17.067h51.2
				c9.412,0,17.067-7.654,17.067-17.067v-17.067C443.736,152.715,436.081,145.061,426.669,145.061z M375.469,179.194v-17.067h51.2
				l0.009,17.067H375.469z"/>
		</g>
	</g>
</g>
<g>
</g>
<g>
</g>
<g>
</g>
<g>
</g>
<g>
</g>
<g>
</g>
<g>
</g>
<g>
</g>
<g>
</g>
<g>
</g>
<g>
</g>
<g>
</g>
<g>
</g>
<g>
</g>
<g>
</g>
</svg>
