<svg xmlns="http://www.w3.org/2000/svg" version="1.1" x="0px" y="0px" viewBox="0 0 386 285" xml:space="preserve">

	<filter id="dropShadow">
	  <feGaussianBlur in="SourceAlpha" stdDeviation="1" /><!-- Bluriness -->
	  <feOffset dx="0" dy="1.2" /><!-- Distance -->

	  <feComponentTransfer><!-- Opacity -->
	    <feFuncA type="linear" slope="1.9"/>
	  </feComponentTransfer>

	  <feMerge><!-- Result -->
	      <feMergeNode />
	      <feMergeNode in="SourceGraphic" />
	  </feMerge>
	</filter>


<g style="stroke:black;stroke-width:0.4px;stroke-linejoin:miter;stroke-opacity:0.7;">

	<g fill="white" filter="url(#dropShadow)"><!-- Text colour -->
		<path d="m145.3 65.6c3.8 1.2 2.8 8.5-1.1 10.7-1.3.6-2.8-.2-3.4-1.6-.7-1.5-.3-3.2 1-3.9 1.2-.6 2.7 0 3.5 1.5 1.1-2.9.3-5.9-3.8-5.2-1.2.2-3.2 1.1-4.3 1.8-9.3 5.9-19.8 24.2-19.7 31.2 0 2 .9 3.1 2.9 2.8 11.5-1.9 19.6-21.5 22.3-24.9.2-.3.3-.2.6-.2 4 0 6.8-6.9 5.5-10.7.4-.8 1.2-1.8 1.6-2.2.5-.5 1.2-.8 2.7-1.1.8-.2 1.8-.4 3.2-.6 1-.2 1.3 0 1.3.2 0 .4-.7 1.1-1.3 2-2.9 4.2-14.9 24.7-14.8 31.2 0 1.4.6 2.1 2 1.9 2.1-.3 5.1-3.2 8.3-8 .2-.3.4-.4.6-.5.4-.1.9.3.9.8 0 .1-.1.3-.1.3-1.3 2.9-9.6 14.1-15.7 15.5-2.7.4-3.7-1.5-3.7-4.4 0-2.9.9-6.7 2-9.7 0 0-.1-.4-.4-.4-.1 0-.2.1-.3.3-1.7 2.7-11.7 15.9-20 17.3-4.1.7-5.9-1.2-6-4.6-.4-12.3 23.6-43.7 36.2-39.5zm63.7 85.9c0 .7.4 1.2 1.2 1.1 1.3-.2 2.2-.4 2.2 1.1 0 7-15.9 34.2-15.9 43.8 0 2.6 1.1 4.2 4.4 3.6 7.5-1.2 18-15 19.7-18.6.1-.1.1-.3.1-.5 0-.7-.5-1-1.1-.9-.2 0-.6.3-.8.6-3.7 5.6-8.6 10-11 10.4-.9.1-1.8.3-1.8-1.2 0-1.4.8-4.2 3-9.6 9.6-23.9 13-30.6 13-32.2 0-.6-.4-.6-1.1-.5-1.2.2-2.4.5-4.5.8-2 .3-5.7.7-6.4.8-.7.2-1 .7-1 1.3zm15.4-16.7c0-2-1.9-3.2-4.3-2.8-2.4.4-4.4 2.2-4.4 4.2 0 1.9 1.9 3.2 4.3 2.8 2.4-.4 4.4-2.3 4.4-4.2zm38.2 16.1c.9 12.4-13.1 35-21.7 36.5-5 .8-7.2-1.9-7.5-6.4-.6-8.2 5.1-22.2 11.7-30.2l1.5-.2c6.9-1.1 11.2-5 11-7-.1-.9-1.2-1.5-3.4-1.1-3 .5-6.3 2.4-9.4 5.2-3.8-.3-8-1-12-.3-3.1.5-9.6 2.9-9.3 7 0 .5.5.7 1 .6.4-.1.9-.4.9-.9 0-1.4 1.6-2.6 3.2-2.9 3.5-.6 8.2-.1 12.8-.1-9.2 9.9-17.1 26.1-16.4 35.5.4 5.4 3.4 8.6 10.5 7.4 19.1-3.2 32.8-37.9 31.9-50.5-.2-3.1-1.3-4.8-3.4-4.4-2.1.3-3.8 1.4-3.6 3.8 0 2.4 1.8 2.8 2.2 8zm-12-3.5c-.9.2-1.8.3-2.7.2 1.9-1.8 3.8-3 5.6-3.3 1.2-.2 1.8 0 1.8.3 0 .9-2.5 2.5-4.7 2.8zm-158.5-91.1c0 14.4-15.8 27.7-27.6 29.7-7.9 1.3-11.8-3.5-11.8-10.8 0-13 12.9-33.3 39.3-37.8 7.1-1.2 17.2-2 27.1-2.7-9.5 23.5-28.2 69.7-29.6 72.9-1.9 4.3-3.1 6.1-7.9 7-.6.2-.7.7-.7 1.1.1.3-.1.8.6.7.8-.2 6.5-1.3 9.4-1.8 3.9-.7 8.6-1.1 9.4-1.3.6-.1.9-.7.9-1.1 0-.4-.2-.7-.4-.6-1.1.2-1.7.3-2.4.3-2 .1-3.5-.5-3.5-2 0-.4.2-.9.4-1.5 15-39.7 25.5-63.9 30-74.1 8.3-.6 15.9-1.3 20.8-2.1 27.2-4.6 33.6-10.8 33.6-13.8 0-1.2-.9-1.8-1.8-1.6-.8.1-1.6.9-1.9 2.2-.8 4.2-6.9 6-15.4 7.5-23 3.9-38.7 0-58 3.3-35.4 6-55.9 33.1-55.9 48.4 0 7.3 4.8 12 14.8 10.3 23.2-4 34.4-25.3 34.4-34.5 0-2.9-1.1-4.7-3.3-4.3-1 .2-1.9.8-1.9 1.9 0 .4.2 1 .5 1.6.6.7.9 1.8.9 3.1zm136.6 23.7c-.9.2-1.5-.3-1.5-1.4 0-5.2 12.1-36.8 27.7-57.5 4.2.3 9.2.2 15-.8 13.8-2.3 20.7-8.6 20.7-13.2 0-3.9-4.7-6.6-14.1-5-2.5.4-5 1.3-7.6 2.5-3.5-2.8-10.8-3.8-17.5-2.6-8.9 1.5-13.1 5.2-13.1 9.1 0 3.9 4.2 7.7 12.1 9.4-6.3 7.7-12.5 17.5-18.5 29.4-1.5-2.2-4.2-2.1-6.7-1.7-5.9 1-12.7 6.2-17.2 11.5-7.5 8.6-13.2 20-13.2 26.4 0 3.6 1.8 5.7 6 5 8-1.4 18.3-14.2 20.1-16.9l.2-.2c-.9 2.5-1.6 5.9-1.6 8.7 0 3 .9 5.3 3.4 4.8 5.9-1 14.2-11.9 15.5-14.7.1-.1.1-.3.1-.4 0-.5-.4-.8-.9-.7-.2 0-.4.2-.6.4-2.8 4.6-6.4 7.6-8.3 7.9zm1.7-27.1c-2.3 4.9-4.6 10-6.9 15.4-4.7 6.7-12 15.1-17.4 16.1-2.2.4-3-1-3-3.4 0-4.6 3.5-13.2 8.4-20.1 4.3-6.2 10.5-10.6 14.6-11.3 2.5-.4 4.3.6 4.3 3.3zm22-49.8c5.3-.9 11.1-.2 14.1 2.8-4.9 2.9-9.9 7.3-14.9 13.1-6-1.5-8.9-4.8-8.9-8 .1-3.4 3.4-6.8 9.7-7.9zm25.3.2c4.3-.7 6.6 1.3 6.6 4 0 4-4.8 9.8-15.5 11.6-5 .9-9.2 1.1-12.7.8 3.8-4.9 7.8-9 11.8-11.9l.5 1.5c0 0 .4.5 1.1.4 1-.2 1.5-.7 1.5-1.3 0-.8-.3-1.6-.7-2.2 2.5-1.5 5-2.5 7.4-2.9zm-.7 38.3c0-2.6-2.1-4-7.1-3.1-13.2 2.3-30.2 26.1-30.2 37.4 0 4.2 2.3 6.7 8 5.7 10.5-1.8 19.7-11.8 24.6-20 .2-.3.2-.5.2-.6 0-.5-.4-1-.9-.9-.2 0-.4.1-.5.4-4.5 7.3-10.7 13.9-16.9 15-4.1.7-5.7-1.6-5.7-5.3 0-1.6.4-3.6.9-5.6.4 0 .8 0 1.1-.1 12.9-2.3 26.5-16.3 26.5-22.9zm-8.5-.9c1.3-.2 1.9.5 1.9 1.7 0 4.9-9 18.8-19.6 20.6-.4.1-.7.1-1 .1 3.2-9.5 11.4-21.1 18.7-22.4zm16.2-5.6l1.8 1.3c-1.6 6.9-7.3 18.9-10.2 25.8-2.8 6.7-5.3 13.3-5.6 13.9 0 0-.1.2-.1.4 0 .6 1.1.7 2.3.5 1.8-.3 4-1.2 4.3-1.7 0 0 1.6-4 3.5-8.7 2.9-7.2 15.4-27.6 19.7-28.3.4-.1.7.1.7.5-.1 2.4-9.3 24.9-13.1 33.7 0 0-.1.2-.1.4 0 .6 1.1.7 2.3.5 1.8-.3 4-1.2 4.3-1.7 1-2.6 3.2-8.1 5.2-12 4.7-9 16.5-25.2 20.6-25.9 1.2-.2 1.8.7 1.8 2.2 0 5.7-4.7 19.9-12.1 28.3-.7-.1-1.5 0-2.2.1-5 .9-8.5 4.4-8.5 6.2 0 .8.6 1.2 2 1 2.5-.4 5.5-2.3 8.7-4.9 4.9 2 19.4 11.6 24.1 3.8.2-.3.3-.6.3-.8 0-.4-.3-.8-.6-.7-.2 0-.4.2-.6.6-5.1 7-16.5-3.9-20.9-4.9 10-9.4 17.7-24.7 17.7-32.4 0-3-1.6-4.7-5.6-4-7.2 1.2-16.7 16.5-20.6 21.6-.1 0-.2-.1-.2-.1 0-1.5 4.6-10.8 4.6-15.2 0-1.8-.9-3-2.6-2.7-5.8 1-14.5 14.8-18.1 19.9-.2-.1-.3-.2-.3-.4l3.2-8.7c2-5.3 3.1-7.3 3.1-8.2 0-.5-.4-.6-.9-.5-1 .2-1.9.4-3.6.7-1.1 0-3.1.2-4.3.4zm21.6 31.1c.7-.1 1.3-.1 1.9-.1-1.9 1.7-3.7 2.9-5.3 3.3-.8.1-1.1-.1-1.1-.4 0-.8 1.6-2.3 4.5-2.8zm-129.7 92.8c.1 1.8-1.3 4.4-3.5 4.9-1.2.3-2.2-.2-2.3-1.4-.1-.9.7-2.8.7-3.5-.1-1.6-2-2.1-4.3-1.6-3.7.8-8.2 4.1-7.9 8.7.4 6.6 10.5 12.1 11 20.1.8 12.4-11.4 22.2-22.2 24.7-10.8 2.4-16.1-2.5-16.5-8.8 0-.6 0-1.1 0-1.7-5.7 7.8-13.9 15.7-23 18-6.3 1.6-8.9-.9-8.9-5.5 0-12.5 18.7-40.4 33.3-44.1 5.5-1.4 7.8 0 7.8 2.8 0 7.3-15 24-29.3 27.7-.3.1-.7.2-1.2.2-.6 2.3-1 4.5-1 6.3 0 4.1 1.8 6.4 6.3 5.3 6.2-1.6 12.4-8.1 17.1-15.6 2.1-4.9 6.8-9.3 13.9-10.9 5.4-1.2 8.1 1.4 8.3 4.3.2 2.4-1.3 4.9-4.2 5.6-1.1.2-1.4 0-1.5-.7-.1-.9.4-2.3.3-4.3-.1-2.2-1.7-3.3-4.2-2.7-6.2 1.4-9.2 7.6-8.8 13 .4 5.6 4.2 10.3 11.8 8.6 6.3-1.4 12.8-7.8 12.1-17.9-.4-6.5-9.3-13.2-9.6-18.8-.5-8.5 8.5-14.8 16-16.5 5.1-1 9.5 0 9.8 3.8zm-65.8 38.9c.3 0 .6-.1 1.1-.2 11.7-3 21.6-19.1 21.6-24.6 0-1.4-.6-2.1-2-1.7-8.1 2.1-17.2 15.7-20.7 26.5zm49.1-63.7c.1 4.5-5.7 10.8-15.5 13.4-9.9 2.6-19.6 2.9-29.5 2.4-6.4 9.4-11.8 21.8-17.4 35-2.9 6.8-2.5 6.1-3.4 8.2 3.7-.8 6.6-1.7 8.5-6.2.2-.5.4-.7.5-.8.4-.2.7 0 .8.5.1.3 0 .6-.1 1-1.8 5.5-6.3 8.9-11.6 9.6-.4 1-1 2.2-1.6 3.7-13.3 30.5-30.5 61.5-66.5 71.1-15.7 4.2-21.6-1-21.8-7-.1-4.7 3.2-9.7 8-10.9 3.8-1 5.2.3 5.2 2.1 0 1.7-1.2 3.9-2.6 4.3h-.5c-1 0-1.8.1-2.5.3-2.5.7-3.9 2.2-3.9 4 .1 3.6 6.1 7.6 19.4 4.1 25.7-6.9 41.2-38.2 56.7-69.6-12 3.4-24.5 8.7-36.8 18.7 0 0-.6.5-1.3.7-.2.1-.6.2-.8 0 0 0-.5-.2-.5-.6 0-.2.2-.5 1-1.2 14.8-13 40.3-21.4 40.3-21.4.4 0 17-33.6 27-45.8-17.4-1.1-35.5-3.8-56.5 1.8-17.3 4.6-26.7 20.1-26.4 29.5.1 5.1 3.2 8.4 9.7 6.7 4.4-1.2 9.1-5.6 10.2-10.2.5-2.3 1.7-3.5 2.9-3.8 1.3-.4 2.5.4 2.6 2 .1 5.5-8.1 11.8-16.2 14-11.7 3.1-17.4-.8-17.6-7.4-.3-10.3 12.9-27.1 38.2-33.8 17.6-4.7 38-2.5 55.7-1.5 7.2-8.1 15.3-14.1 24.9-16.6 15-4 21.3-1 21.4 3.7zm-7.6 2.4c-.1-3.7-5.1-6.5-15.8-3.6-7.7 2.1-14 7.2-19.4 14.3 9.3.4 17.7.3 24.5-1.5 7-1.9 10.8-5.9 10.7-9.2zm109.5 44.7c.2 3.8 2.4 5.9 6.9 5.1 9.2-1.5 19.7-16.3 21.5-19.4.2-.2.3-.3.4-.4.3-.1.4.4.4.4-1.1 3.4-1.9 7.7-1.7 10.9.2 3.2 1.4 5.4 4.4 4.9 6.8-1.5 15.5-14.1 16.8-17.4 0 0 .1-.2.1-.3 0-.6-.6-1-1.1-.9-.2 0-.5.2-.7.5-3.3 5.4-6.6 8.6-8.8 9-1.6.3-2.2-.5-2.3-2.1-.5-7.3 11.9-30.3 14.9-35 .6-1 1.4-1.8 1.4-2.3 0-.3-.4-.4-1.5-.3-1.5.2-2.6.5-3.5.7-1.7.4-2.5.8-3 1.3-.5.4-1.3 1.6-1.7 2.5 1.6 4.2-1.1 11.9-5.6 11.9-.3 0-.5-.1-.7.2-2.9 3.8-10.9 25.7-23.6 27.8-2.2.4-3.3-.9-3.4-3.1-.5-7.9 10.3-28.3 20.4-34.9 1.2-.8 3.4-1.8 4.7-2 4.5-.8 5.6 2.6 4.5 5.9-.9-1.6-2.6-2.3-3.9-1.7-1.4.7-1.7 2.7-.9 4.3.8 1.6 2.5 2.5 3.9 1.8 4.3-2.4 5-10.6.7-12-14.4-4.5-39.5 30.6-38.6 44.6zm83.4-83.4c-.5.3-1.1.7-1.7 1-6.3 12.3-12.4 32.3-15.8 43.6-.9 2.7-7.7 22.1-7.4 25.8.1 1 .7 1 1.6.8 2.2-.5 6-4.1 9-9.4.2-.2.5-.5.7-.6.5-.1 1 .2 1.1.8 0 .1 0 .2-.1.4-1.2 3.3-9.8 16.3-16.6 17.9-3 .7-4.1-.7-4.3-3.1-.3-3.2 1.2-8 2.8-12.6 6.8-19.5 13.7-44 25.3-62.3-5.7.9-22.6-4.8-26 5.6-.2.6-.3.8-.5.9-.4.3-.8.1-1-.4-.1-.3-.1-.7 0-1.1 2.6-11.3 23.2-8.2 29.7-8.7 2.7-4.7 5.6-8.3 8.3-10.1 1.6-1 2.4-.9 2.7 0 .5 2-2.2 7.9-7.8 11.5zm-114.5-.4c-12.9.7-23.1 4.7-30.5 9.8-7.9-5.2-14.9-11.4-21.2-13.6 10-8.2 20.5-23.4 20.5-31.1 0-3-1.6-4.9-5.6-4.6-7.1.4-14.9 7.7-19.9 12.8-.5.5-.8.8-1 .8-.2-.1-.3-.3-.3-.4 3.4-8.5 4.5-10.4 4.5-11.3 0-.5-.4-.6-.9-.6-1 .1-1.9.2-3.6.3-1.6.1-4.6.1-5.2.1-.5 0-.8.4-.8.8 0 .5.4 1 1 1 1.1-.1 1.7-.1 1.7 1 0 3.9-12.5 29.8-15 36.7 0 0-.1.2-.1.4 0 .6 1.1.8 2.3.8 1.8-.1 4-.8 4.3-1.2 0 0 7.6-18.5 9.6-22 1.9-3.3 12.4-13.6 16.9-13.8 2.6-.1 3.6 1.5 3.6 3.9 0 6.4-7.1 19.2-14.2 26-.8-.1-1.6-.3-2.4-.2-5 .3-8.5 3.5-8.5 5.2 0 .8.6 1.3 2 1.2 2.7-.1 5.9-1.8 9.3-4.4 6.4 1.9 13.1 8.2 20.8 13.7-7.1 5.5-10.9 12.1-10.9 17.1 0 4.6 3.3 7.8 10.1 7.7-.7 2.3-2 6.1-3.7 10.5-18.7 4.1-25 1.5-25-1.9 0-2.5 3.2-5.3 7.3-6.5 5.2-1.4 10-.4 12 3.7.2.3.4.4.7.3.5-.1 1-.7 1-1.2 0-4.1-8.5-5.1-14.1-3.6-5.9 1.6-10.2 5.8-10.2 9.1 0 4.3 7.2 7.4 27.7 2-6.4 17.3-16.8 43.4-17.2 44.2-1.9 4.5-3.8 9.2-3.8 12.4 0 2.4 1 3.8 4 3.4 6.9-1 17.5-13.5 19-16.7.1-.1.1-.3.1-.4 0-.6-.5-.9-1-.8-.2 0-.5.3-.7.5-3.3 4.3-8.3 9-10.8 9.3-.9.1-1.5-.3-1.5-1.7 0-6 11.2-32.8 19.7-52.5 3-1 5.9-2 8.5-3 0 0 .7-.2 5.3-2.1-.2-.2-.3-.4-.4-.7-1.5.6-3.5 1.4-4.9 1.9-2 .7-4.2 1.4-6.5 2-.5.1-.9.3-1.4.4 4.9-11.4 8.8-20 8.8-20.4 0-.3-.1-.5-.4-.4-2.5.4-7.1 4.7-10.2 6.2-.3.1-.6.3-1 .4-.1 0-.3.1-.4.1-.1 0-.2.1-.3.1-.3.1-.6.1-1 .1-4.9.3-7.2-1.7-7.2-4.7 0-3.7 3.4-9.1 9.6-13.8 7.1 4.8 15.1 8.9 24.7 8.3 15.3-.9 24.2-7.8 24.2-13.4.3-4.3-5.2-7.9-17.4-7.2zm-61.2.2c-.8 0-1.1-.2-1.1-.6 0-.8 1.7-2.1 4.9-2.6.7 0 1.4 0 2.1.1-2.1 1.7-4.1 2.9-5.9 3.1zm53 17.5c-7.5.4-14.5-2.8-20.9-6.9 6.8-4.5 16.2-8.2 27.5-8.9 8.1-.5 12 2.2 12 5.6.1 4.3-6.4 9.5-18.6 10.2zm12.4 13.7c-3.4.9-6.5 2.3-9.7 3.9.2.4.4.8.5 1.3 2.7-1.1 5.1-2 7.5-2.6 3.9-1.1 4.7.2 6-.1.5-.1 1-.8 1-1.5 0-1.1-1.2-2.1-5.3-1zm115.8-39.6c-.1-.4-.6-.4-1.5.1-1.7 1.3-3.5 3.6-5 6.5.8-.3 1.5-.6 2.3-1.1 3.1-2 4.5-4.6 4.2-5.5z"/>
		</g><!-- /Text colour -->
	</g><!-- /stroke -->
</svg>
