<?xml version="1.0" encoding="iso-8859-1"?>
<!-- Generator: Adobe Illustrator 19.0.0, SVG Export Plug-In . SVG Version: 6.00 Build 0)  -->
<svg version="1.1" id="Capa_1" xmlns="http://www.w3.org/2000/svg" xmlns:xlink="http://www.w3.org/1999/xlink" x="0px" y="0px"
	 viewBox="0 0 60 60" style="enable-background:new 0 0 60 60;" xml:space="preserve">
<g>
	<g>
		<path d="M35,3h-5c-0.553,0-1,0.448-1,1s0.447,1,1,1h5c0.553,0,1-0.448,1-1S35.553,3,35,3z"/>
		<path d="M27,3h-1c-0.553,0-1,0.448-1,1s0.447,1,1,1h1c0.553,0,1-0.448,1-1S27.553,3,27,3z"/>
		<circle cx="30.5" cy="54.5" r="2.5"/>
		<path d="M11.125,14h0.844c0.553,0,1-0.448,1-1s-0.447-1-1-1h-0.844c-0.553,0-1,0.448-1,1S10.572,14,11.125,14z"/>
		<path d="M56.516,9H47V6V3.961C47,1.777,45.223,0,43.038,0H17.962C15.777,0,14,1.777,14,3.961V6v3.063H4.343
			c-1.93,0-3.499,1.57-3.499,3.499v4.126C0.369,16.766,0,17.159,0,17.656V18.5c0,0.497,0.369,0.891,0.844,0.968v0.594
			C0.369,20.141,0,20.534,0,21.031v0.844c0,0.497,0.369,0.891,0.844,0.968v0.594C0.369,23.516,0,23.909,0,24.406v0.844
			c0,0.497,0.369,0.891,0.844,0.968v30.283C0.844,58.43,2.413,60,4.343,60h13.619h25.076h13.478C58.437,60,60,58.429,60,56.498V53
			V15v-2.498C60,10.571,58.437,9,56.516,9z M47,17h11v34H47V17z M16,3.961C16,2.88,16.88,2,17.962,2h25.076
			C44.12,2,45,2.88,45,3.961V6H16V3.961z M16,8h29v1v6v34H16V15V9.063V8z M4.343,11.063H14V15H2.844v-2.438
			C2.844,11.735,3.517,11.063,4.343,11.063z M14,51H3V17h11V51z M4.343,58c-0.826,0-1.499-0.672-1.499-1.499V53H14v3.039
			c0,0.243,0.03,0.479,0.072,0.711c0.01,0.055,0.021,0.11,0.033,0.165c0.051,0.225,0.115,0.445,0.203,0.653
			c0.008,0.018,0.018,0.034,0.026,0.052c0.057,0.13,0.117,0.258,0.187,0.38H4.343z M17.962,58C16.88,58,16,57.12,16,56.039V53v-2h29
			v2v3.039C45,57.12,44.12,58,43.038,58H17.962z M58,56.498C58,57.326,57.334,58,56.516,58H46.479c0.07-0.122,0.13-0.25,0.187-0.38
			c0.008-0.018,0.018-0.034,0.026-0.052c0.088-0.209,0.152-0.428,0.203-0.653c0.012-0.055,0.023-0.109,0.033-0.165
			C46.97,56.518,47,56.282,47,56.039V53h11V56.498z M47,15v-1h3c0.553,0,1-0.448,1-1s-0.447-1-1-1h-3v-1h9.516
			C57.334,11,58,11.674,58,12.502V15H47z"/>
		<path d="M20,17c0.256,0,0.512-0.098,0.707-0.293l4-4c0.391-0.391,0.391-1.023,0-1.414s-1.023-0.391-1.414,0l-4,4
			c-0.391,0.391-0.391,1.023,0,1.414C19.488,16.902,19.744,17,20,17z"/>
		<path d="M20,22c0.256,0,0.512-0.098,0.707-0.293l2-2c0.391-0.391,0.391-1.023,0-1.414s-1.023-0.391-1.414,0l-2,2
			c-0.391,0.391-0.391,1.023,0,1.414C19.488,21.902,19.744,22,20,22z"/>
		<path d="M23.29,16.29C23.109,16.48,23,16.74,23,17s0.109,0.52,0.29,0.71C23.479,17.89,23.74,18,24,18s0.52-0.11,0.71-0.29
			C24.89,17.52,25,17.26,25,17s-0.11-0.52-0.29-0.71C24.33,15.92,23.67,15.92,23.29,16.29z"/>
		<path d="M25.293,15.707C25.488,15.902,25.744,16,26,16s0.512-0.098,0.707-0.293l3-3c0.391-0.391,0.391-1.023,0-1.414
			s-1.023-0.391-1.414,0l-3,3C24.902,14.684,24.902,15.316,25.293,15.707z"/>
		<path d="M20,27c0.256,0,0.512-0.098,0.707-0.293l9-9c0.391-0.391,0.391-1.023,0-1.414s-1.023-0.391-1.414,0l-9,9
			c-0.391,0.391-0.391,1.023,0,1.414C19.488,26.902,19.744,27,20,27z"/>
		<path d="M30.29,15.71C30.479,15.89,30.74,16,31,16s0.52-0.11,0.71-0.29C31.89,15.52,32,15.26,32,15s-0.11-0.52-0.29-0.71
			c-0.37-0.37-1.04-0.37-1.42,0C30.109,14.48,30,14.74,30,15S30.109,15.52,30.29,15.71z"/>
		<path d="M33,14c0.256,0,0.512-0.098,0.707-0.293l1-1c0.391-0.391,0.391-1.023,0-1.414s-1.023-0.391-1.414,0l-1,1
			c-0.391,0.391-0.391,1.023,0,1.414C32.488,13.902,32.744,14,33,14z"/>
	</g>
</g>
<g>
</g>
<g>
</g>
<g>
</g>
<g>
</g>
<g>
</g>
<g>
</g>
<g>
</g>
<g>
</g>
<g>
</g>
<g>
</g>
<g>
</g>
<g>
</g>
<g>
</g>
<g>
</g>
<g>
</g>
</svg>
