<?xml version="1.0" encoding="iso-8859-1"?>
<!-- Generator: Adobe Illustrator 19.0.0, SVG Export Plug-In . SVG Version: 6.00 Build 0)  -->
<svg version="1.1" id="Layer_1" xmlns="http://www.w3.org/2000/svg" xmlns:xlink="http://www.w3.org/1999/xlink" x="0px" y="0px"
	 viewBox="0 0 512 512" style="enable-background:new 0 0 512 512;" xml:space="preserve">
<g>
	<g>
		<path d="M256,0C114.347,0,0,114.347,0,256s114.347,256,256,256s256-114.347,256-256S397.653,0,256,0z M256,494.933
			C123.733,494.933,17.067,388.267,17.067,256S123.733,17.067,256,17.067S494.933,123.733,494.933,256S388.267,494.933,256,494.933z
			"/>
	</g>
</g>
<g>
	<g>
		<path d="M256,59.733C147.627,59.733,59.733,147.627,59.733,256S147.627,452.267,256,452.267S452.267,364.373,452.267,256
			S364.373,59.733,256,59.733z M256,435.2c-98.987,0-179.2-80.213-179.2-179.2S157.013,76.8,256,76.8S435.2,157.013,435.2,256
			S354.987,435.2,256,435.2z"/>
	</g>
</g>
<g>
	<g>
		<path d="M170.667,247.467h-128c-5.12,0-8.533,3.413-8.533,8.533s3.413,8.533,8.533,8.533h128c5.12,0,8.533-3.413,8.533-8.533
			S175.787,247.467,170.667,247.467z"/>
	</g>
</g>
<g>
	<g>
		<path d="M469.333,247.467h-128c-5.12,0-8.533,3.413-8.533,8.533s3.413,8.533,8.533,8.533h128c5.12,0,8.533-3.413,8.533-8.533
			S474.453,247.467,469.333,247.467z"/>
	</g>
</g>
<g>
	<g>
		<path d="M256,34.133c-5.12,0-8.533,3.413-8.533,8.533v128c0,5.12,3.413,8.533,8.533,8.533s8.533-3.413,8.533-8.533v-128
			C264.533,37.547,261.12,34.133,256,34.133z"/>
	</g>
</g>
<g>
	<g>
		<path d="M256,332.8c-5.12,0-8.533,3.413-8.533,8.533v128c0,5.12,3.413,8.533,8.533,8.533s8.533-3.413,8.533-8.533v-128
			C264.533,336.213,261.12,332.8,256,332.8z"/>
	</g>
</g>
<g>
	<g>
		<path d="M256,145.067c-61.44,0-110.933,49.493-110.933,110.933S194.56,366.933,256,366.933S366.933,317.44,366.933,256
			S317.44,145.067,256,145.067z M256,349.867c-52.053,0-93.867-41.813-93.867-93.867c0-52.053,41.813-93.867,93.867-93.867
			s93.867,41.813,93.867,93.867S308.053,349.867,256,349.867z"/>
	</g>
</g>
<g>
	<g>
		<path d="M321.707,332.8c-2.56-1.707-4.267-3.413-6.827-5.12l-29.867-14.507c-0.853-0.853-1.707-1.707-1.707-2.56v-8.533
			c0-0.853,7.68-12.8,10.24-18.773c5.12-3.413,8.533-8.533,8.533-15.36V256c0-3.413-0.853-6.827-3.413-10.24v-14.507
			c0-5.12-0.853-11.947-4.267-17.92c-6.827-11.093-19.627-17.067-38.4-17.067c-19.627,0-32.427,5.973-38.4,17.067
			c-3.413,5.973-4.267,11.947-4.267,17.067v14.507c-1.707,2.56-3.413,5.973-3.413,10.24v11.947c0,5.12,1.707,9.387,5.12,12.8
			c0.853,4.267,8.533,19.627,10.24,21.333v8.533c0,0.853-0.853,1.707-1.707,2.56l-27.307,15.36c-2.56,1.707-5.12,3.413-6.827,5.12
			l-5.973,5.973l6.827,6.827c18.773,13.653,40.96,21.333,64.853,21.333c23.893,0,46.08-7.68,64.853-21.333l8.533-5.973
			L321.707,332.8z M256,349.867c-15.36,0-30.72-3.413-43.52-11.093l20.48-11.093c5.973-3.413,10.24-10.24,10.24-17.067v-14.507
			l-1.707-2.56c-0.853-1.707-3.413-4.267-5.12-8.533c-1.707-3.413-3.413-7.68-4.267-11.093l-0.853-3.413l-2.56-1.707
			c0,0,0,0,0-0.853V256c0,0,0,0,0-0.853l2.56-2.56v-21.333V230.4c0-2.56,0-5.12,1.707-7.68c3.413-5.12,10.24-8.533,23.893-8.533
			s20.48,3.413,23.893,8.533c1.707,2.56,1.707,5.12,1.707,7.68v0.853v21.333l2.56,2.56c0,0,0,0,0,0.853v11.947l-5.12,2.56
			l-1.707,4.267c-1.707,5.973-4.267,11.093-7.68,16.213c-0.853,0.853-4.267,5.12-4.267,5.12v14.507
			c0,7.68,4.267,14.507,11.093,17.92l22.187,11.093C285.867,346.453,271.36,349.867,256,349.867z"/>
	</g>
</g>
<g>
</g>
<g>
</g>
<g>
</g>
<g>
</g>
<g>
</g>
<g>
</g>
<g>
</g>
<g>
</g>
<g>
</g>
<g>
</g>
<g>
</g>
<g>
</g>
<g>
</g>
<g>
</g>
<g>
</g>
</svg>
