<svg version="1.1" xmlns="http://www.w3.org/2000/svg" xmlns:xlink="http://www.w3.org/1999/xlink" 
x="0px" y="0px" viewBox="0 0 400 310" xml:space="preserve">
<use  xlink:href="#shadow" x="0" y="1.0" style="fill: black; stroke: black; stroke-width:3.33;"/>
<path style=" fill: white;" fill-rule="evenodd" d="M383.5 209c-.5.6-2.5-1.3-3-1.5-2.8-1-6.9-1.1-10.8.6-3.4 1.4-6.4 3.3-9.2 5.7-2.1 2-3.9 4.2-6.7 5.9-.9.6-3.4 1.8-4.8 1.9l-2.1-.3-.7.1c-.5.1-1.6-.8-1.8-1.2-1.1-2.1.2-4.2.5-6.5l-.2-.2c-1.8.4-2.8 2.2-3.7 3.5l-2.5 2.8c-1.8 2.2-3.4 4.4-6.4 6.1-1.4.7-3.7 1.4-5 1.2-1.6-.4-3.2-1.2-3.9-2.4-.5-.8.5-2.4-.5-2.7l-3.4 1.8c-1.4.7-2.8 1.2-4.4 1.8l-2.5.7-2.3.7c-.7.1-1.1.2-1.8.1-3 1.1-10.1 2-13.1 2.6l-6.1 1.2c-13.9 2.8-28.5 5.9-42.4 8.5-7.3 1.3-13.9 3-21.2 4.2-18.8 3.8-36.7 7.6-55.4 11.1l-10.4 2.1c-3 .6-10.1 2.5-13.1 2.6-.7.4-1.2.5-1.8.6l-2.3.2-2.5.3c-1.6.1-3 .1-4.4-.1l-3.4-.5c-.9.6 0 1.8-.5 2.9-.7 1.5-2.3 3-3.9 4-1.4.7-3.7 1-5 .8-3-.5-4.6-2.1-6.4-3.5l-2.5-1.8c-.9-1-1.8-2.4-3.7-2l-.2.3c.2 2.2 1.6 3.8.5 6.3-.2.5-1.4 1.9-1.8 2l-.7.1-2.1 1.1c-1.4.5-3.9.3-4.8 0-2.7-.6-4.6-2.1-6.7-3.3-2.7-1.3-5.7-2.1-9.2-2.1-3.9-.1-8 1.6-10.8 3.8-.5.3-2.5 3-3 2.7.9-2.5 4.6-4.6 6.7-6.1.5-.1.5-.8.9-1.1 3.7-2.3 7.1-4.4 12.6-5.5l3.2-.6c1.8.1 3.9.4 5.3 1l2.3.7c.9-1.6.9-4.5 0-5.5 0-.5-.5-.1-.7-.6.2-1 1.4-1.7 2.3-2.1 1.8-1.3 6.2-3.1 9.2-3 1.4 0 2.5.4 3.9.6l1.1-.2c.9-.2 2.1.3 2.8-.1 0 0 .2 0 .2-.3-.2-.6-.7-1-1.2-1.4-1.1-1.2-2.5-2-3.9-2.7l-2.5-.9c-.5-.1-2.8-.8-3.4-.5-.5.8-.5 1.5-.9 2.5-.2.5-3.2 2.9-3.9 2.6v-.2s.2-.3.2-.5c-2.3.5-4.8 1-6.9.9-3-.1-6.4-1.2-10.3.2-2.3.9-4.1 1.7-5.7 3.2-.5.5-1.8 2.2-2.3 2.3v-.2c.7-1.5 3.2-3.4 4.6-4.6l2.5-2.1c2.3-1.8 5.3-3.6 8.3-4.6 1.4-.5 3.7-1.4 5.3-1.5.7.1 1.4-.1 2.1-.2l.7-4.3.7-.1c.5-.3 1.6-1.7 2.3-2.1 2.1-1.3 5-2.4 7.6-2.2 1.1.2 2.1.7 3 1 1.4.2 2.3.5 3.4.9.7.1 2.8.8 3.4.7 0-1.4 0-2.8.2-4.2.2-1.4 1.4-3.2 2.5-3.9l2.5-1.2c2.3-.5 4.1.3 6.2.1l6-.5c1.4 0 3.9-.3 5.3-.8l1.4-.3c1.6-.1 4.1-.6 5.7-1.1.9-.4 2.7-.5 5.7-1.1l8.7-1.7c4.9-1.2 11.4-2 23.6-4.7l15.5-3.1 48.9-9.8 38.7-7.7c3-.6 4.8-1.2 5.7-1.1l5.7-1.1 1.4-.3c1.4 0 3.9-.8 5.3-1.3l6-1.9c2.1-.6 3.9-2.2 6.2-2.6l2.5.2c1.1.2 2.3 1.6 2.5 2.9.2 1.3.2 2.7.2 4.1.7-.1 2.8-1.7 3.4-2.1 1.2-.9 2.1-1.6 3.4-2.3.9-.7 1.8-1.5 3-2.2 2.5-1.2 5.5-1.3 7.6-.8.7.1 1.8 1 2.3 1.1l.7-.1.7 4c.7-.1 1.4-.3 2.1-.6 1.6-.6 3.9-.6 5.3-.6 3-.1 6 .4 8.3 1.3l2.5 1.1c1.4.6 3.9 1.5 4.6 2.8v.2c-.5.1-1.8-1-2.3-1.4-1.6-.8-3.4-.9-5.7-.9-3.9.1-7.3 2.6-10.3 3.9-2.1.9-4.6 1.4-6.9 1.8 0 .2.2.4.2.4v.2c-.7.6-3.7-.6-3.9-1.1-.5-.8-.5-1.5-.9-2.1-.7-.1-3 1.5-3.4 1.8l-2.5 1.9c-1.4 1.2-2.8 2.6-3.9 4.2-.5.5-.9 1.1-1.1 1.8 0 .2.2.2.2.2.7.1 1.8-.8 2.8-1l1.1-.2c1.4-.7 2.5-1.6 3.9-2.2 3-1.3 7.3-1.2 9.2-.7.9.1 2.1.3 2.3 1.2-.2.5-.7.4-.7.8-.9 1.3-.9 4.3 0 5.5l2.3-1.6c1.4-1.2 3.4-2.3 5.3-3.1l3.2-.6c5.5-1.1 8.9-.4 12.6.5.5.1.5.8.9.7 1.9 1 5.6 1.6 6.5 3.7z"/>

<!-- Date -->
<g id="shadow" style=" fill: white;" >
<!--path fill="#fff" d="M80.2 297.5c1.4-2 5.1-1.5 7-1 .2.1 7.7 1.7 5.6-.2l.9-.2c6.5 3.6-6.3 3-6.9 3-1.6-.4-8.2 1.4-6.6-1.6m-.4-7.4v-5.4c.1-.9.5-3.5-.4-4.1-.3-.2-1.5.1-1.5-.6 0 1.5 5.5-6.4 4.1-6.4.8 0 .5 4.2.4 3.8 0 2.5 2.9 1.5 2.9 2.5s-1.7.6-2.3.6c-1.1.1-.6 2.5-.7 3.3 0 2.4-.2 4.9.2 7.2 0 .5.8.7 1.1.6h.1c.7 0 .8-1.9.7-2.5.2-1.4.9.8.9 1.2 0 1.9-1.5 2.8-3.2 2.7-1.6.3-2.5-1.2-2.3-2.9m12.6 2.1c1.8-.8.8-9.4.5-10.8-.1-.6-.8-.8-1.4-.8-2.5 0-2 5.4-1.9 6.6.2 6.9 2.8 5.1-4.1 6-.7-.2.8-.9 1-1 2.3-1.4.8-15.7.5-18.1 0-.8-1.1 0-1.1-.7 0-.3 2.6-1.6 3.1-2.3.1-.2.4 7.3.7 9 0-.6 2.9-1.2 4-.8 1.7.2 2 3.5 2 4.7.3 2-.3 4.1-.1 6 0 1.1 1.4 2.2 1.4 2.6 0 .5-4.2.4-4.8.5-1.3-.1.1-.9.2-.9m83.8 5.4c3-4.1 10.4 2 13-1.3 5.9 2.9-6 2.6-6.6 2.6-1.4-.3-7.8 1.2-6.4-1.3m3.2-3.9c-.5 0-.8 0-1.3.1 1.4 0 .9-9.4.8-11.1-.1-1-1.1-1.5-2-1.4-2.3 0-1.1 9.2-1.2 11.4l1.1.8c0 1.3-4.7.1-5 0 1.7-.6 1.4-2.1 1.3-3.7l-.1-3.2c0-1-.1-2-.1-2.9s-1.2-1.6-1.2-2c0-.3 2.6-1.4 2.9-1.4.5-.4.8.4.8.8-.2-.8 4.4-.8 5.3.3 1.3 1 1 3.2 1.1 4.5l-.2 6.1c0 1.3 1.1 1.1 1.1 1.8-.1.6-3.3-.1-3.3-.1m14.1.1c-1.2 0-2.3-1-2.7-1-.8 0-1.7 1.3-2.9 1.3-2.3 0-3-2.6-3.1-4.4-.1-3.2-.8-11.4 4.9-9.5 2.5.6 1.5-2.1 1.4-4.6-.2-1-1.5-.5-1.5-1.2 0-.5 1.6-1.1 2-1.2l.9-1c.6-.8 1 8.4 1 9.6l-.1 6.3c0 1.4 0 2.7.1 4.1.2.8 1.6.8 1.6 1.4.1.5-1.3.2-1.6.2m-5.1-1.2c3.9 1.3 3.1-8.1 2.3-10.2-2-4.8-6.2 8.8-2.3 10.2m-141.2 11.8c-1.7 0-2.9-.1-4.4 1.1-2.5 1.7-1.8-7.6-1.7-9.1.6-4.2 2.7-6.1 5.7-9 1.3-2 5.9-5.3 2.6-8.2-2.1-1.4-6.1-1.2-6.1 2.3 0 1.4 4.3 6.2-.5 5.8-1.6-.8-2.5-2.3-2.5-4.1.5-2.3 1.2-4.6 3.5-5.6 5.6-1.7 12.5 1.6 9.3 7.9-.9 2.8-4.3 4.8-6.4 6.7-1.9.8-6.9 9.4-3.9 9.4 1 0 2.3-1.4 3.7-1.4 1.1 0 2.8 1.1 3.6 1 3 1 2.3-2.9 1.8-4.9.9-2.8 1.5 5.3 1.5 4.7 0 3-.2 5.4-3.8 4.3l-2.4-.9m16.8 1.1c-8.4 0-5.3-21.5-3.1-25.9 1.1-1.1 2.4-1.9 4-2.3l.2.1h.9c.1-.1.2-.2.4-.2 10.7 2.9 7 32.2-2.4 28.3m-.7-3.7c.2 1.3 1.4 2.9 2.9 2.6 2.3 0 2.2-4.1 2.3-5.6.4-4.1 2.2-17.5-1.7-19.9-5.2-3-4 19.4-3.5 22.9m47.1-9.9c2 .2 8.7-.6 9.9.7 2.5 2.6-8.8 2.2-9.6 2.3-1.8-.1-2-3-.3-3m32.3 12.5c-1.7 0-2.9-.1-4.4 1.1-2.5 1.7-1.8-7.6-1.7-9.1.6-4.2 2.7-6.1 5.7-9 1.3-2 5.9-5.3 2.6-8.2-2.1-1.4-6.1-1.2-6.1 2.3 0 1.4 4.3 6.2-.5 5.8-1.6-.8-2.5-2.3-2.5-4.1.5-2.3 1.2-4.6 3.5-5.6 5.6-1.7 12.5 1.6 9.3 7.9-.9 2.8-4.3 4.8-6.4 6.7-1.9.8-6.9 9.4-3.9 9.4 1 0 2.3-1.4 3.7-1.4 1.1 0 2.8 1.1 3.6 1 3 1 2.3-2.9 1.8-4.9.9-2.8 1.5 5.3 1.5 4.7 0 3-.2 5.4-3.8 4.3l-2.4-.9m18.2 0c-1.7 0-2.9-.1-4.4 1.1-2.5 1.7-1.8-7.6-1.7-9.1.6-4.2 2.7-6.1 5.7-9 1.3-2 5.9-5.3 2.6-8.2-2.1-1.4-6.1-1.2-6.1 2.3 0 1.4 4.3 6.2-.5 5.8-1.6-.8-2.5-2.3-2.5-4.1.5-2.3 1.2-4.6 3.5-5.6 5.6-1.7 12.5 1.6 9.3 7.9-.9 2.8-4.3 4.8-6.4 6.7-1.9.8-6.9 9.4-3.9 9.4 1 0 2.3-1.4 3.7-1.4 1.1 0 2.8 1.1 3.6 1 3 1 2.3-2.8 1.8-4.9.9-2.8 1.5 5.3 1.5 4.7 0 3-.2 5.4-3.8 4.3l-2.4-.9m55.7-1.1c-1.7-2.5-2-7.3.4-9.4.2-.2.5-.2.8-.2 5.8.8-4.9 11.8 3.6 10.6 4.7 0 2.5-21 2.5-24.3 0-2.9-5-.9-5.4.7-1.3 5-1.7-.2-2.3-2.3 0-1.7 5-.8 6.3-.9 5.6-.2 5.3.3 5.3 5.8-.2 6.1 3.3 26.7-9.1 22-.5-.2-.8-.6-1.1-.8l-1-1.2m19.6 1.5c-2.9-2.4-1.4-9.3-1.5-12.6-.1-1.1.2-2.7-.2-3.8-.3-.8-2.3-1.4-2.3-2 0-1.4 4.3-.5 5.3-.5 1.8.3.4 14.2.8 16.2.7 3.1 4.9 2.3 4.9-.7l-.1-13.6c-.4-1.4-2.7-.8-.9-2.1 1.5 0 3 .2 4.4.3 2.9.6-3.5 16.6 2 17.1 1.9 0-1.9 1.7-2 1.7-2.5 1.1-1.5-1.1-3.3-1.1-1.3 0-2.6 2.5-4.8 2.3-.4-.2-1.3-.3-1.6-.5l-.7-.7m26.6.3c-.7 0-1.2.1-1.9.2.5 0 1.4-5 1.4-6.4 0-3.2-.1-6.4-.3-9.6-.1-1.4-1.7-2.2-2.9-2.1-3.3 0-1.5 13.5-1.7 16.3.8 2 2.5 1.7-2 1.7-1.4.1-2.9.6-3.5-.6 2.9-.8 1.8-4.3 1.8-6.6 0-1.8 0-3.6-.1-5.3l-.1-3.5c-.2-1-1.7-.8-1.7-1.5 0-.6 3.6-1.7 4.1-2.1.7-.5 1 .5 1 1-.3-1.2 6.3-1 7.5.5 2.8 2.1 1.4 10.5 1.4 13.2 0 5.2 3.6 4.8-3 4.8m8.9-6.9c.2-6.1-.5-8.4 3.8-12.4 2.4 0 4.1-1.2 6.2.8 2 2 2.4 5.6 1.5 8.1-.5.7-5.9.2-6 .2-2.4 0-2 1.9-2 3.8 0 2.9 2.9 8.1 5.5 4.4.3-.9-.5-2-1.2-2.5-1.6-1.8.8-3.3 2.5-3 3.9.3.2 8.2-3.7 8.2-4.7.4-6.6-3.5-6.6-7.6m4.5-4.5c1.3 0 2.6 0 3.8-.2 0-2 1-6.9-2.5-6.9-2.9-.1-2.9 7.1-1.3 7.1m29.9 10.7c-1.7 0-2.9-.1-4.4 1.1-2.5 1.7-1.8-7.6-1.7-9.1.6-4.2 2.7-6.1 5.7-9 1.3-2 5.9-5.3 2.6-8.2-2.1-1.4-6.1-1.2-6.1 2.3 0 1.4 4.3 6.2-.5 5.8-1.6-.8-2.5-2.3-2.5-4.1.5-2.3 1.2-4.6 3.5-5.6 5.6-1.7 12.5 1.6 9.3 7.9-.9 2.8-4.3 4.8-6.4 6.7-1.9.8-6.9 9.4-3.9 9.4 1 0 2.3-1.4 3.7-1.4 1.1 0 2.8 1.1 3.6 1 3 1 2.3-2.8 1.8-4.9.9-2.8 1.5 5.3 1.5 4.7 0 3-.2 5.4-3.8 4.3l-2.4-.9m16.7 1.1c-8.4 0-5.3-21.5-3.1-25.9 1.1-1.1 2.4-1.9 4-2.3l.2.1h.9c.1-.1.2-.2.4-.2 10.8 2.9 7.1 32.2-2.4 28.3m-.7-3.7c.2 1.3 1.4 2.9 2.9 2.6 2.3 0 2.2-4.1 2.3-5.6.4-4.1 2.2-17.5-1.7-19.9-5.2-3-4 19.4-3.5 22.9m13.3 3c1.1-1.7 3.4-.8 3.4-4v-6.1c-.2-2.5.1-5 0-7.5-.1-1.3-.2-2.6-.2-3.9-.5-2-3.4-.1-3.4-1.3 0-1.1 5.1-4 5.9-4.6h.1c1.7-.8 1.1 4.3.8 5.8-.1 2.9-.2 5.9-.1 8.7l.1.2c0 3.6.1 7.2.4 10.8.6 2.3 5 1.9.1 2.6-1.1.3-7.3-.5-7.1-.7m17.5-.4l1.4-.3c2.5-.6 1.2-12.7 1.1-15.4 0-1.4-5.7-.5-6.4-.5-2.7 0 2.1-4.5 2.6-5.1 2-2.1 3.8-4.2 6.2-6 2.3-2-.7 10.5 3.7 9.2 1.3-.9 1 4.2 1.1 5 0 1.5-1.3-1.1-1.3-1.8-.5-3.5-2.1.6-2.2 1.9-.1 2 0 4.1-.2 6-.1 1.6-.2 3.2.1 4.7.1 1.4 2.5 1.4 2.5 2.3 0 1.2-7.4.2-8.8.8-.4-.1-.4-.4.2-.8m-2-17.6c1.4 0 3.8.7 4.7-.6.5-.2.2-5.3.2-5.3-1.7 0-5.2 5.9-4.9 5.9"/-->

<!-- Logo -->
<path fill="#fff" d="M144 65.3c3.8 1.2 2.8 8.5-1.1 10.7-1.3.6-2.8-.2-3.4-1.6-.7-1.5-.3-3.2 1-3.9 1.2-.6 2.7 0 3.5 1.5 1.1-2.9.3-5.9-3.8-5.2-1.2.2-3.2 1.1-4.3 1.8-9.3 5.9-19.8 24.2-19.7 31.2 0 2 .9 3.1 2.9 2.8 11.5-1.9 19.6-21.5 22.3-24.9.2-.3.3-.2.6-.2 4 0 6.8-6.9 5.5-10.7.4-.8 1.2-1.8 1.6-2.2.5-.5 1.2-.8 2.7-1.1.8-.2 1.8-.4 3.2-.6 1-.2 1.3 0 1.3.2 0 .4-.7 1.1-1.3 2-2.9 4.2-14.9 24.7-14.8 31.2 0 1.4.6 2.1 2 1.9 2.1-.3 5.1-3.2 8.3-8 .2-.3.4-.4.6-.5.4-.1.9.3.9.8 0 .1-.1.3-.1.3-1.3 2.9-9.6 14.1-15.7 15.5-2.7.4-3.7-1.5-3.7-4.4 0-2.9.9-6.7 2-9.7 0 0-.1-.4-.4-.4-.1 0-.2.1-.3.3-1.7 2.7-11.7 15.9-20 17.3-4.1.7-5.9-1.2-6-4.6-.4-12.3 23.7-43.8 36.2-39.5zm63.7 85.9c0 .7.4 1.2 1.2 1.1 1.3-.2 2.2-.4 2.2 1.1 0 7-15.9 34.2-15.9 43.8 0 2.6 1.1 4.2 4.4 3.6 7.5-1.2 18-15 19.7-18.6.1-.1.1-.3.1-.5 0-.7-.5-1-1.1-.9-.2 0-.6.3-.8.6-3.7 5.6-8.6 10-11 10.4-.9.1-1.8.3-1.8-1.2 0-1.4.8-4.2 3-9.6 9.6-23.9 13-30.6 13-32.2 0-.6-.4-.6-1.1-.5-1.2.2-2.4.5-4.5.8-2 .3-5.7.7-6.4.8-.6.2-1 .7-1 1.3zm15.4-16.8c0-2-1.9-3.2-4.3-2.8-2.4.4-4.4 2.2-4.4 4.2 0 1.9 1.9 3.2 4.3 2.8 2.5-.3 4.4-2.2 4.4-4.2zm38.3 16.2c.9 12.4-13.1 35-21.7 36.5-5 .8-7.2-1.9-7.5-6.4-.6-8.2 5.1-22.2 11.7-30.2l1.5-.2c6.9-1.1 11.2-5 11-7-.1-.9-1.2-1.5-3.4-1.1-3 .5-6.3 2.4-9.4 5.2-3.8-.3-8-1-12-.3-3.1.5-9.6 2.9-9.3 7 0 .5.5.7 1 .6.4-.1.9-.4.9-.9 0-1.4 1.6-2.6 3.2-2.9 3.5-.6 8.2-.1 12.8-.1-9.2 9.9-17.1 26.1-16.4 35.5.4 5.4 3.4 8.6 10.5 7.4 19.1-3.2 32.8-37.9 31.9-50.5-.2-3.1-1.3-4.8-3.4-4.4-2.1.3-3.8 1.4-3.6 3.8 0 2.4 1.8 2.8 2.2 8zm-12-3.5c-.9.2-1.8.3-2.7.2 1.9-1.8 3.8-3 5.6-3.3 1.2-.2 1.8 0 1.8.3 0 .8-2.5 2.5-4.7 2.8zm-158.6-91.1c0 14.4-15.8 27.7-27.6 29.7-7.9 1.3-11.8-3.5-11.8-10.8 0-13 12.9-33.3 39.3-37.8 7.1-1.2 17.2-2 27.1-2.7-9.5 23.5-28.2 69.7-29.6 72.9-1.9 4.3-3.1 6.1-7.9 7-.6.2-.7.7-.7 1.1.1.3-.1.8.6.7.8-.2 6.5-1.3 9.4-1.8 3.9-.7 8.6-1.1 9.4-1.3.6-.1.9-.7.9-1.1 0-.4-.2-.7-.4-.6-1.1.2-1.7.3-2.4.3-2 .1-3.5-.5-3.5-2 0-.4.2-.9.4-1.5 15-39.7 25.5-63.9 30-74.1 8.3-.6 15.9-1.3 20.8-2.1 27.2-4.7 33.6-10.9 33.6-13.9 0-1.2-.9-1.8-1.8-1.6-.8.1-1.6.9-1.9 2.2-.8 4.2-6.9 6-15.4 7.5-23 3.9-38.7 0-58 3.3-35.4 6-56 33.1-56 48.5 0 7.3 4.8 12 14.8 10.3 23.2-4 34.4-25.3 34.4-34.5 0-2.9-1.1-4.7-3.3-4.3-1 .2-1.9.8-1.9 1.9 0 .4.2 1 .5 1.6.7.6 1 1.7 1 3.1zm136.6 23.6c-.9.2-1.5-.3-1.5-1.4 0-5.2 12.1-36.8 27.7-57.5 4.2.3 9.2.2 15-.8 13.8-2.3 20.7-8.6 20.7-13.2 0-3.9-4.7-6.6-14.1-5-2.5.4-5 1.3-7.6 2.5-3.5-2.8-10.8-3.8-17.5-2.6-8.9 1.5-13.1 5.2-13.1 9.1 0 3.9 4.2 7.7 12.1 9.4-6.3 7.7-12.5 17.5-18.5 29.4-1.5-2.2-4.2-2.1-6.7-1.7-5.9 1-12.7 6.2-17.2 11.5-7.5 8.6-13.2 20-13.2 26.4 0 3.6 1.8 5.7 6 5 8-1.4 18.3-14.2 20.1-16.9l.2-.2c-.9 2.5-1.6 5.9-1.6 8.7 0 3 .9 5.3 3.4 4.8 5.9-1 14.2-11.9 15.5-14.7.1-.1.1-.3.1-.4 0-.5-.4-.8-.9-.7-.2 0-.4.2-.6.4-2.7 4.7-6.3 7.6-8.3 7.9zm1.8-27.1c-2.3 4.9-4.6 10-6.9 15.4-4.7 6.7-12 15.1-17.4 16.1-2.2.4-3-1-3-3.4 0-4.6 3.5-13.2 8.4-20.1 4.3-6.2 10.5-10.6 14.6-11.3 2.5-.3 4.3.7 4.3 3.3zm22-49.8c5.3-.9 11.1-.2 14.1 2.8-4.9 2.9-9.9 7.3-14.9 13.1-6-1.5-8.9-4.8-8.9-8 .1-3.4 3.4-6.8 9.7-7.9zm25.3.2c4.3-.7 6.6 1.3 6.6 4 0 4-4.8 9.8-15.5 11.6-5 .9-9.2 1.1-12.7.8 3.8-4.9 7.8-9 11.8-11.9l.5 1.5s.4.5 1.1.4c1-.2 1.5-.7 1.5-1.3 0-.8-.3-1.6-.7-2.2 2.5-1.5 5-2.5 7.4-2.9zm-.7 38.3c0-2.6-2.1-4-7.1-3.1-13.2 2.3-30.2 26.1-30.2 37.4 0 4.2 2.3 6.7 8 5.7 10.5-1.8 19.7-11.8 24.6-20 .2-.3.2-.5.2-.6 0-.5-.4-1-.9-.9-.2 0-.4.1-.5.4-4.5 7.3-10.7 13.9-16.9 15-4.1.7-5.7-1.6-5.7-5.3 0-1.6.4-3.6.9-5.6.4 0 .8 0 1.1-.1 12.9-2.3 26.5-16.3 26.5-22.9zm-8.5-.9c1.3-.2 1.9.5 1.9 1.7 0 4.9-9 18.8-19.6 20.6-.4.1-.7.1-1 .1 3.1-9.5 11.4-21 18.7-22.4zm16.2-5.6l1.8 1.3c-1.6 6.9-7.3 18.9-10.2 25.8-2.8 6.7-5.3 13.3-5.6 13.9 0 0-.1.2-.1.4 0 .6 1.1.7 2.3.5 1.8-.3 4-1.2 4.3-1.7 0 0 1.6-4 3.5-8.7 2.9-7.2 15.4-27.6 19.7-28.3.4-.1.7.1.7.5-.1 2.4-9.3 24.9-13.1 33.7 0 0-.1.2-.1.4 0 .6 1.1.7 2.3.5 1.8-.3 4-1.2 4.3-1.7 1-2.6 3.2-8.1 5.2-12 4.7-9 16.5-25.2 20.6-25.9 1.2-.2 1.8.7 1.8 2.2 0 5.7-4.7 19.9-12.1 28.3-.7-.1-1.5 0-2.2.1-5 .9-8.5 4.4-8.5 6.2 0 .8.6 1.2 2 1 2.5-.4 5.5-2.3 8.7-4.9 4.9 2 19.4 11.6 24.1 3.8.2-.3.3-.6.3-.8 0-.4-.3-.8-.6-.7-.2 0-.4.2-.6.6-5.1 7-16.5-3.9-20.9-4.9 10-9.4 17.7-24.7 17.7-32.4 0-3-1.6-4.7-5.6-4-7.2 1.2-16.7 16.5-20.6 21.6-.1 0-.2-.1-.2-.1 0-1.5 4.6-10.8 4.6-15.2 0-1.8-.9-3-2.6-2.7-5.8 1-14.5 14.8-18.1 19.9-.2-.1-.3-.2-.3-.4l3.2-8.7c2-5.3 3.1-7.3 3.1-8.2 0-.5-.4-.6-.9-.5-1 .2-1.9.4-3.6.7-1.1 0-3.1.2-4.3.4zm21.6 31.1c.7-.1 1.3-.1 1.9-.1-1.9 1.7-3.7 2.9-5.3 3.3-.8.1-1.1-.1-1.1-.4 0-.8 1.6-2.2 4.5-2.8zm-129.8 92.9c.1 1.8-1.3 4.4-3.5 4.9-1.2.3-2.2-.2-2.3-1.4-.1-.9.7-2.8.7-3.5-.1-1.6-2-2.1-4.3-1.6-3.7.8-8.2 4.1-7.9 8.7.4 6.6 10.5 12.1 11 20.1.8 12.4-11.4 22.2-22.2 24.7-10.8 2.4-16.1-2.5-16.5-8.8v-1.8c-5.7 7.8-13.9 15.7-23 18-6.3 1.6-8.9-.9-8.9-5.5 0-12.5 18.7-40.4 33.3-44.1 5.5-1.4 7.8 0 7.8 2.8 0 7.3-15 24-29.3 27.7-.3.1-.7.2-1.2.2-.6 2.3-1 4.5-1 6.3 0 4.1 1.8 6.4 6.3 5.3 6.2-1.6 12.4-8.1 17.1-15.6 2.1-4.9 6.8-9.3 13.9-10.9 5.4-1.2 8.1 1.4 8.3 4.3.2 2.4-1.3 4.9-4.2 5.6-1.1.2-1.4 0-1.5-.7-.1-.9.4-2.3.3-4.3-.1-2.2-1.7-3.3-4.2-2.7-6.2 1.4-9.2 7.6-8.8 13 .4 5.6 4.2 10.3 11.8 8.6 6.3-1.4 12.8-7.8 12.1-17.9-.4-6.5-9.3-13.2-9.6-18.8-.5-8.5 8.5-14.8 16-16.5 5.1-.9 9.6.1 9.8 3.9zm-65.8 38.9c.3 0 .6-.1 1.1-.2 11.7-3 21.6-19.1 21.6-24.6 0-1.4-.6-2.1-2-1.7-8 2.1-17.2 15.7-20.7 26.5zm151.1-16.6c.2 3.8 2.4 5.9 6.9 5.1 9.2-1.5 19.7-16.3 21.5-19.4l.4-.4c.3-.1.4.4.4.4-1.1 3.4-1.9 7.7-1.7 10.9.2 3.2 1.4 5.4 4.4 4.9 6.8-1.5 15.5-14.1 16.8-17.4 0 0 .1-.2.1-.3 0-.6-.6-1-1.1-.9-.2 0-.5.2-.7.5-3.3 5.4-6.6 8.6-8.8 9-1.6.3-2.2-.5-2.3-2.1-.5-7.3 11.9-30.3 14.9-35 .6-1 1.4-1.8 1.4-2.3 0-.3-.4-.4-1.5-.3-1.5.2-2.6.5-3.5.7-1.7.4-2.5.8-3 1.3-.5.4-1.3 1.6-1.7 2.5 1.6 4.2-1.1 11.9-5.6 11.9-.3 0-.5-.1-.7.2-2.9 3.8-10.9 25.7-23.6 27.8-2.2.4-3.3-.9-3.4-3.1-.5-7.9 10.3-28.3 20.4-34.9 1.2-.8 3.4-1.8 4.7-2 4.5-.8 5.6 2.6 4.5 5.9-.9-1.6-2.6-2.3-3.9-1.7-1.4.7-1.7 2.7-.9 4.3.8 1.6 2.5 2.5 3.9 1.8 4.3-2.4 5-10.6.7-12-14.4-4.5-39.5 30.6-38.6 44.6zm83.5-83.5c-.5.3-1.1.7-1.7 1-6.3 12.3-12.4 32.3-15.8 43.6-.9 2.7-7.7 22.1-7.4 25.8.1 1 .7 1 1.6.8 2.2-.5 6-4.1 9-9.4.2-.2.5-.5.7-.6.5-.1 1 .2 1.1.8 0 .1 0 .2-.1.4-1.2 3.3-9.8 16.3-16.6 17.9-3 .7-4.1-.7-4.3-3.1-.3-3.2 1.2-8 2.8-12.6 6.8-19.5 13.7-44 25.3-62.3-5.7.9-22.6-4.8-26 5.6-.2.6-.3.8-.5.9-.4.3-.8.1-1-.4-.1-.3-.1-.7 0-1.1 2.6-11.3 23.2-8.2 29.7-8.7 2.7-4.7 5.6-8.3 8.3-10.1 1.6-1 2.4-.9 2.7 0 .4 2.1-2.3 8-7.8 11.5zm-114.6-.3c-12.9.7-23.1 4.7-30.5 9.8-7.9-5.2-14.9-11.4-21.2-13.6 10-8.2 20.5-23.4 20.5-31.1 0-3-1.6-4.9-5.6-4.6-7.1.4-14.9 7.7-19.9 12.8-.5.5-.8.8-1 .8-.2-.1-.3-.3-.3-.4 3.4-8.5 4.5-10.4 4.5-11.3 0-.5-.4-.6-.9-.6-1 .1-1.9.2-3.6.3-1.6.1-4.6.1-5.2.1-.5 0-.8.4-.8.8 0 .5.4 1 1 1 1.1-.1 1.7-.1 1.7 1 0 3.9-12.5 29.8-15 36.7 0 0-.1.2-.1.4 0 .6 1.1.8 2.3.8 1.8-.1 4-.8 4.3-1.2 0 0 7.6-18.5 9.6-22 1.9-3.3 12.4-13.6 16.9-13.8 2.6-.1 3.6 1.5 3.6 3.9 0 6.4-7.1 19.2-14.2 26-.8-.1-1.6-.3-2.4-.2-5 .3-8.5 3.5-8.5 5.2 0 .8.6 1.3 2 1.2 2.7-.1 5.9-1.8 9.3-4.4 6.4 1.9 13.1 8.2 20.8 13.7-7.1 5.5-10.9 12.1-10.9 17.1 0 4.6 3.3 7.8 10.1 7.7-.7 2.3-2 6.1-3.7 10.5-18.7 4.1-25 1.5-25-1.9 0-2.5 3.2-5.3 7.3-6.5 5.2-1.4 10-.4 12 3.7.2.3.4.4.7.3.5-.1 1-.7 1-1.2 0-4.1-8.5-5.1-14.1-3.6-5.9 1.6-10.2 5.8-10.2 9.1 0 4.3 7.2 7.4 27.7 2-6.4 17.3-16.8 43.5-17.2 44.2-1.9 4.5-3.8 9.2-3.8 12.4 0 2.4 1 3.8 4 3.4 6.9-1 17.5-13.5 19-16.7.1-.1.1-.3.1-.4 0-.6-.5-.9-1-.8-.2 0-.5.3-.7.5-3.3 4.3-8.3 9-10.8 9.3-.9.1-1.5-.3-1.5-1.7 0-6 11.2-32.8 19.7-52.5 3-1 5.9-2 8.5-3 0 0 .7-.2 5.3-2.1-.2-.2-.3-.4-.4-.7-1.5.6-3.5 1.4-4.9 1.9-2 .7-4.2 1.4-6.5 2l-1.4.4c4.9-11.4 8.8-20 8.8-20.4 0-.3-.1-.5-.4-.4-2.5.4-7.1 4.7-10.2 6.2-.3.1-.6.3-1 .4l-.4.1-.3.1c-.3.1-.6.1-1 .1-4.9.3-7.2-1.7-7.2-4.7 0-3.7 3.4-9.1 9.6-13.8 7.1 4.8 15.1 8.9 24.7 8.3 15.3-.9 24.2-7.8 24.2-13.4.3-4.4-5.2-7.9-17.4-7.2zm-61.2.2c-.8 0-1.1-.2-1.1-.6 0-.8 1.7-2.1 4.9-2.6.7 0 1.4 0 2.1.1-2.2 1.7-4.1 2.9-5.9 3.1zm53 17.5c-7.5.4-14.5-2.8-20.9-6.9 6.8-4.5 16.2-8.2 27.5-8.9 8.1-.5 12 2.2 12 5.6 0 4.3-6.4 9.5-18.6 10.2zm12.4 13.7c-3.4.9-6.5 2.3-9.7 3.9.2.4.4.8.5 1.3 2.7-1.1 5.1-2 7.5-2.6 3.9-1.1 4.7.2 6-.1.5-.1 1-.8 1-1.5 0-1.1-1.2-2.1-5.3-1zm115.8-39.7c-.1-.4-.6-.4-1.5.1-1.7 1.3-3.5 3.6-5 6.5.8-.3 1.5-.6 2.3-1.1 3.1-1.9 4.5-4.5 4.2-5.5zm-250.1 106.9c.6-.2 2.2-1.6 2.1-2.4 0-.4-.4-.7-1.7-.5l-7.8 1.6c.5-1.3 1-2.4 1.1-2.5.5-1.1.7-1.7 3-7.3 5.6-13.2 11-25.6 17.4-35 9.8.5 19.6.2 29.5-2.4 9.8-2.6 15.6-8.9 15.5-13.4-.2-4.7-6.5-7.7-21.4-3.7-9.5 2.6-17.7 8.6-24.9 16.6-17.7-1.1-38.1-3.2-55.7 1.5-25.3 6.7-38.5 23.5-38.3 33.8.2 6.6 5.9 10.5 17.7 7.3 8.1-2.2 16.3-8.4 16.2-14-.1-1.6-1.3-2.3-2.6-2-1.2.3-2.3 1.5-2.9 3.8-1.1 4.6-5.8 9-10.2 10.2-6.4 1.7-9.5-1.6-9.7-6.7-.2-9.4 9.2-24.9 26.5-29.5 21-5.6 39.1-3 56.6-1.8-10 12.2-18.5 28.5-26.7 45.2-.3.6-.4.6-.5.6-11.1 3.4-25.2 9.6-40 21.6-.8.7-1 1-1 1.2 0 .4.5.6.5.6.2.2.6.1.9 0 .7-.2 1.3-.7 1.3-.7 12.3-10.1 24.9-15.3 36.9-18.8-15.5 31.4-31 62.8-56.7 69.7-13.4 3.6-19.4-.5-19.5-4.1-.1-1.8 1.3-3.4 3.8-4.1.7-.2 1.6-.3 2.5-.3h.5c1.4-.4 2.7-2.7 2.7-4.3-.1-1.8-1.4-3.1-5.2-2.1-4.8 1.2-8.1 6.3-8 10.9.2 6 6.1 11.2 21.8 7 36-9.6 53.2-40.7 66.6-71.2.2-.6.9-2.1 1.6-3.7l1.6-.2c2.3-.4 4.6-.7 6.5-.9zm35.7-63.2c10.7-2.9 15.7-.1 15.9 3.6.1 3.4-3.7 7.3-10.8 9.3-6.8 1.8-15.2 1.9-24.5 1.5 5.4-7.2 11.7-12.3 19.4-14.4z"/>
</g>



<g ><!-- Banner line art -->
	<path d="m98 263.4c-.5-.8-2.7-1.7-3.9-1.7h-.2v.2c0 .2.2.2.2.2l1.8.3 1.8 1h.3zm0 .9h-.2v.2c0 .2.2.4.5.4 0 0 0-.2.2-.3 0-.2-.3-.3-.5-.3zm25.9-20.3c.5-.6-.5-1.1-.7-1.2l-.2.2c0 .5.5.8.9 1zm207.1-41.4c.5-.3.9-.9.9-1.3l-.2-.2c-.2.2-1.2 1.1-.7 1.5zm52.5 6.4c-.5.6-2.5-1.3-3-1.5-2.8-1-6.9-1.1-10.8.6-3.4 1.4-6.4 3.3-9.2 5.7-2.1 2-3.9 4.2-6.7 5.9-.9.6-3.4 1.8-4.8 1.9l-2.1-.3-.7.1c-.5.1-1.6-.8-1.8-1.2-1.1-2.1.2-4.2.5-6.5l-.2-.2c-1.8.4-2.8 2.2-3.7 3.5l-2.5 2.8c-1.8 2.2-3.4 4.4-6.4 6.1-1.4.7-3.7 1.4-5 1.2-1.6-.4-3.2-1.2-3.9-2.4-.5-.8.5-2.4-.5-2.7l-3.4 1.8c-1.4.7-2.8 1.2-4.4 1.8l-2.5.7c-.7.1-1.6.6-2.3.7-.7.1-1.1.2-1.8.1-3 1.1-10.1 2-13.1 2.6l-6.1 1.2c-13.9 2.8-28.5 5.9-42.4 8.5-7.3 1.3-13.9 3-21.2 4.2-18.8 3.8-36.7 7.6-55.4 11.1l-10.4 2.1c-3 .6-10.1 2.5-13.1 2.6-.7.4-1.2.5-1.8.6-.7.1-1.6.1-2.3.2l-2.5.3c-1.6.1-3 .1-4.4-.1l-3.4-.5c-.9.6 0 1.8-.5 2.9-.7 1.5-2.3 3-3.9 4-1.4.7-3.7 1-5 .8-3-.5-4.6-2.1-6.4-3.5l-2.5-1.8c-.9-1-1.8-2.4-3.7-2l-.2.3c.2 2.2 1.6 3.8.5 6.3-.2.5-1.4 1.9-1.8 2l-.7.1-2.1 1.1c-1.4.5-3.9.3-4.8 0-2.7-.6-4.6-2.1-6.7-3.3-2.7-1.3-5.7-2.1-9.2-2.1-3.9-.1-8 1.6-10.8 3.8-.5.3-2.5 3-3 2.7.9-2.5 4.6-4.6 6.7-6.1.5-.1.5-.8.9-1.1 3.7-2.3 7.1-4.4 12.6-5.5l3.2-.6c1.8.1 3.9.4 5.3 1l2.3.7c.9-1.6.9-4.5 0-5.5 0-.5-.5-.1-.7-.6.2-1 1.4-1.7 2.3-2.1 1.8-1.3 6.2-3.1 9.2-3 1.4 0 2.5.4 3.9.6l1.1-.2c.9-.2 2.1.3 2.8-.1 0 0 .2 0 .2-.3-.2-.6-.7-1-1.2-1.4-1.1-1.2-2.5-2-3.9-2.7l-2.5-.9c-.5-.1-2.8-.8-3.4-.5-.5.8-.5 1.5-.9 2.5-.2.5-3.2 2.9-3.9 2.6v-.2c0 0 .2-.3.2-.5-2.3.5-4.8 1-6.9.9-3-.1-6.4-1.2-10.3.2-2.3.9-4.1 1.7-5.7 3.2-.5.5-1.8 2.2-2.3 2.3v-.2c.7-1.5 3.2-3.4 4.6-4.6l2.5-2.1c2.3-1.8 5.3-3.6 8.3-4.6 1.4-.5 3.7-1.4 5.3-1.5.7.1 1.4-.1 2.1-.2.7-1 0-3 .7-4.3l.7-.1c.5-.3 1.6-1.7 2.3-2.1 2.1-1.3 5-2.4 7.6-2.2 1.1.2 2.1.7 3 1 1.4.2 2.3.5 3.4.9.7.1 2.8.8 3.4.7 0-1.4 0-2.8.2-4.2.2-1.4 1.4-3.2 2.5-3.9l2.5-1.2c2.3-.5 4.1.3 6.2.1l6-.5c1.4 0 3.9-.3 5.3-.8l1.4-.3c1.6-.1 4.1-.6 5.7-1.1.9-.4 2.7-.5 5.7-1.1l8.7-1.7c4.9-1.2 11.4-2 23.6-4.7l15.5-3.1c16.3-3 32.6-6.8 48.9-9.8l38.7-7.7c3-.6 4.8-1.2 5.7-1.1l5.7-1.1c0 0 0 0 0 0l1.4-.3c1.4 0 3.9-.8 5.3-1.3l6-1.9c2.1-.6 3.9-2.2 6.2-2.6l2.5.2c1.1.2 2.3 1.6 2.5 2.9.2 1.3.2 2.7.2 4.1.7-.1 2.8-1.7 3.4-2.1 1.2-.9 2.1-1.6 3.4-2.3.9-.7 1.8-1.5 3-2.2 2.5-1.2 5.5-1.3 7.6-.8.7.1 1.8 1 2.3 1.1l.7-.1c.7 1 0 3.2.7 4 .7-.1 1.4-.3 2.1-.6 1.6-.6 3.9-.6 5.3-.6 3-.1 6 .4 8.3 1.3l2.5 1.1c1.4.6 3.9 1.5 4.6 2.8v.2c-.5.1-1.8-1-2.3-1.4-1.6-.8-3.4-.9-5.7-.9-3.9.1-7.3 2.6-10.3 3.9-2.1.9-4.6 1.4-6.9 1.8 0 .2.2.4.2.4v.2c-.7.6-3.7-.6-3.9-1.1-.5-.8-.5-1.5-.9-2.1-.7-.1-3 1.5-3.4 1.8l-2.5 1.9c-1.4 1.2-2.8 2.6-3.9 4.2-.5.5-.9 1.1-1.1 1.8 0 .2.2.2.2.2.7.1 1.8-.8 2.8-1l1.1-.2c1.4-.7 2.5-1.6 3.9-2.2 3-1.3 7.3-1.2 9.2-.7.9.1 2.1.3 2.3 1.2-.2.5-.7.4-.7.8-.9 1.3-.9 4.3 0 5.5l2.3-1.6c1.4-1.2 3.4-2.3 5.3-3.1l3.2-.6c5.5-1.1 8.9-.4 12.6.5.5.1.5.8.9.7 1.9 1 5.6 1.6 6.5 3.7zm-9.9-3.7c-.7.1-1.4-.2-2.1-.3l-3.9.1c-3.9.1-8 1.6-11 3.3l-3.2 1.3-.7.8c0 .5 0 .7.2.9 0 1.4-.7 2.9-1.2 3.4.2-.7.7-1.7.5-2.8l-1.4-3.6-.5-1.7c0-1.2.9-1.8.9-2.7-.5-.4-.7-.3-1.1-.2-2.5-.4-6.2-.4-9.4.7l-3.2 1.5c-.7.1-1.1.5-1.8.8-.5.1-.9.4-1.4.7 0 0-1.4-.6-1.4-.9-.2-.6 1.6-3.5 2.1-4.1 2.5-3.5 5.5-6.4 9.9-8.4 2.1-1.1 6.2-1 6.2.8-.5.5-2.5 3.3-3.7 2.3.5-.8 1.8-2 2.1-2.5h-.2c-.5.1-1.1.7-1.6 1 0-.5.5-.8.2-1.2-1.4.1-.7 1.5-1.1 2.3-.5-.1-.2-1.1-.5-1.3h-.2c-.5.8 0 1.8.2 2 .5-.1.5-.1.7-.4 0 .2.5.6.7.5.7.1.9-.2 1.4-.3.9-.4 1.8-.4 2.7-.8 1.4-.5 2.8-.8 3.9-1.5l4.1-2.2c1.4-.3 3-.6 4.4-1.1h.2v.3c-2.1-.7-6-.9-8.9-.3-.7.1-2.8-.1-3.4.5-.2.5.2 1.3 0 2.1-.5-.4-.2-1.3-.7-1.7l-.7-.8v-.9l-.5-.6c0-.2.2-.5.2-1 0-.7-.9-1.2-1.4-1.3l-1.2-.2c-3.2-.5-6.6.2-9.6 2.4-1.1.9-2.1 2.2-3.2 2.9l-2.5 1.2c-.7.1-1.1.2-1.8.6 0 0-.2.3-.5.3-.7 1.7 0 3.4-.2 5.3-.2 1 0 2.1 0 3l.7 9c.2 0 .2 0 .2.2.9-1.1 3.7-3.3 5-3.5h.2v.2c-.2.5-.9.9-1.6 1.2-.7.4-3.4 2.3-3.7 2.8 0 .5 0 .7.2 1.1l.7-.8c.5-.3 1.1-.9 1.8-1.1l.2.2c.2.6-1.8 1.3-2.1 1.8-.9 1.1-.9 3.4-1.1 4.8-.2-1.1 0-2.3-.2-3.6-.2-2-.7-3.8-1.1-5.5l-.5-2.4c-.5-1.1-2.5-2.5-3.4-3v-.2h.2c.9 0 2.1 1.7 3 1.9h.2c0-2.1-2.1-1.9-3.4-2.5 0-.2.2-.3.2-.3.7-.4 1.8.3 2.5.6 0-.2.2-.3.2-.3.2-.5-.5-2.2-.5-2.7 0-.5.2-.7.2-1.2-.2-.4-.2-.9-.2-1.6-.7-1.9-2.8-1.5-4.1-2.4-.2-.2 0-.2.2-.3 1.1 0 2.1.7 3 1l.5-.1c-.2-.6-1.4-.6-1.8-1l.2-.3c.7-.1.9.3 1.8.1 1.1-1.4.9-2.9 1.4-4.9 0-.5.5-1.2.5-1.9-.2 0-.2-.2-.5-.4-.7-.8-1.4-1.1-3.2-.5-2.8.8-5 1.9-8 3l-4.4 1.3-4.4 1.1-2.1.4-22 4.4c-4.9.7-9.8 2.2-14.7 2.9-6.5 1.1-22.8 4.8-29.4 5.9l-5.7 1.1c-5.7 1.4-11.4 2-19.6 3.9l-14.7 2.9c-8.2 1.9-15.5 3.1-23.7 4.7l-18.8 3.8-12.9 2.6-4.4.6-4.4.4c-3 .1-5.3-.1-8 .2-1.8.1-2.5.7-3.2 1.8-.2.3-.2.5-.5.6 0 .7.5 1.3.5 1.7.5 1.7.2 3.4 1.4 4.3.9-.2 1.2-.7 1.8-.8l.2.2c-.5.6-1.6 1-1.8 1.7l.5-.1c.9-.6 1.8-1.7 3-2.2.2 0 .5-.1.2.2-1.4 1.4-3.4 1.8-4.1 4 0 .7 0 1.1-.2 1.6 0 .5.2.6.2 1.1 0 .5-.7 2.4-.5 2.8 0 0 .2 0 .2.2.7-.6 1.8-1.7 2.5-1.6 0 0 .2 0 .2.2-1.4 1.2-3.4 1.8-3.4 3.9h.2c.9-.7 2.1-2.7 3-3.1h.2v.2c-.9.9-3 3.1-3.4 4.4l-.5 2.6c-.5 1.9-.9 3.8-1.1 6-.2 1.4 0 2.5-.2 3.7-.2-1.3-.2-3.6-1.2-4.4-.2-.4-2.3-.2-2.1-1l.2-.3c.7-.1 1.4.2 1.8.3l.7.6c.2-.5.2-.7.2-1.2-.2-.4-3-1.2-3.7-1.3-.7-.1-1.4-.2-1.6-.6v-.2h.2c1.4-.3 4.1.8 5 1.5 0-.2 0-.2.2-.3l.7-9.3c0-.9.2-2.1 0-3-.2-1.8.5-3.8-.2-5.2-.2 0-.5-.1-.5-.1-.7-.1-1.2 0-1.8.1l-2.5-.2c-1.1-.2-2.1-1.2-3.2-1.7-3-1-6.4-.3-9.6 1.5l-1.1.7c-.5.3-1.4 1.2-1.4 1.9 0 .5.2.6.2.9l-.5.8v.9l-.7 1.1c-.5.5-.2 1.4-.7 2-.2-.6.2-1.7 0-2.1-.7-.3-2.8.8-3.4.9-3 .6-6.9 2.3-8.9 3.9v.2h.2c1.4 0 3-.4 4.4-.6l4.1.5c1.1.2 2.5 0 3.9-.1.9 0 1.8-.4 2.8-.3.5-.1.7.1 1.4-.3.2 0 .7-.6.7-.8.2.2.2.2.7.1.2-.3.7-1.5.2-2.1h-.2c-.2.3 0 1.1-.5 1.5-.5-.6.2-2.3-1.1-1.8-.2.5.2.6.2 1.1-.5-.1-1.1-.5-1.6-.4h-.2c.2.4 1.6 1 2.1 1.6-1.1 1.4-3.2-.5-3.7-.9 0-1.8 4.1-3.6 6.2-3.3 4.4.3 7.3 2 9.9 4.4.5.4 2.3 2.5 2.1 3.3 0 .2-1.4 1.4-1.4 1.4-.5-.1-.9-.3-1.4-.2-.7-.1-1.1-.2-1.8-.1l-3.2-.3c-3.2.2-6.9 1.6-9.4 3-.5.1-.7.1-1.1.7 0 .9.9 1.2.9 2.4l-.5 1.9-1.4 4.2c-.2 1.2.2 2 .5 2.7-.5-.4-1.1-1.6-1.1-3 .2-.3.2-.5.2-1l-.7-.6h-3.2c-3-.5-7.1-.4-11 1.1l-3.9 1.5c-.7.4-1.4 1-2.1 1.1v.2l2.5-.5c2.5 0 5.7.5 7.8 1l4.8 2c2.3 1.1 4.6 2.5 7.6 2.6 1.2.2 2.3-.2 3.4-.7.2 0 1.1-.5 1.1-.5 1.1-.9 1.4-3.3.9-4.8 0-.2-.2-.6-.5-.8 0-.9.5-1.7 0-2.3l-.5.1v.9c-.5-.1-1.1-.7-2.1-.1.9.3 3 1.5 2.3 3-.5-.8-2.5-2-3.9-1.7.7 1.2 5.3 1.9 3.7 4.3-.2-.6-1.1-.9-1.6-1-.5.1-.7-.1-.9-.3-.7-.5-2.1-.7-2.3-1.6.2-.3.7-2 .7-2.2h-.2c.7-2.7 5.5-2.9 7.3-2.6 5.5 1.2 7.6 7.2 13.5 7.4 2.1 0 3.4-.7 4.8-1.9.2 0 .2 0 .5-.3.5-.8.7-2.7 0-3.4-.5-.6-2.1-.7-3-.3v.2c.9.3 1.8.8 2.8 1.3v.5c-.5-.6-2.8-1.5-3.7-1.1l-.2.3v.2l1.4.4c1.1.2 3.2 0 2.5 2-2.1-.5-8.7-.3-5-4.5 1.1-1.2 3.4-1.8 4.8-1.7 2.3.2 4.6.7 6.9 1.1l5 .1c.7-.1 1.8-.1 2.5-.5l1.1-.2c1.4 0 3.4-.5 5-1l9.2-1.8 12.8-2.6c5.7-.9 12.2-2.7 17.9-3.6 9-1.8 17.9-3.8 26.9-5.4 12.2-2.2 25.3-5.3 37.5-7.5 12.2-2.7 24.5-4.7 36.7-7.3l3.7-.7 5.2-1 6.6-1.3v.2c.9-.2 1.7-.4 2.4-.6l1.1-.2c.7.1 1.8-.4 2.5-.5l5-2.2c2.3-1.4 4.6-2.7 6.9-3.9 1.4-.7 3.7-1 4.8-.3 3.7 2.7-3 5.2-5 6.5-.7-1.7 1.4-2.3 2.5-3l1.4-.9v-.2l-.2-.2c-.9 0-3.2 1.8-3.7 2.6v-.5c.9-.9 1.8-1.7 2.7-2.4v-.2c-.9 0-2.5.7-3 1.5-.7 1-.5 2.8 0 3.4.2.2.2.2.5.1 1.4.7 2.8.8 4.8 0 6-2.6 8-9.4 13.5-12.8 1.8-1.1 6.6-2.7 7.3-.3h-.2c0 .2.5 1.8.7 1.9-.2 1-1.6 1.7-2.3 2.5-.2.3-.5.6-.9.7-.5.3-1.4.9-1.6 1.7-1.6-1.7 3-4.3 3.7-5.8-1.4.3-3.4 2.3-3.9 3.3-.7-1.2 1.4-3.2 2.3-3.9-.9-.3-1.6.6-2.1.9v-.9l-.5.1c-.5.8 0 1.4 0 2.3-.2.3-.5.8-.5 1-.5 1.7-.2 3.9.9 4.4 0 0 .9 0 1.1 0 1.1 0 2.3 0 3.4-.7 3-1.3 5.3-3.6 7.6-5.6l4.8-3.9c2.1-1.3 5.3-3.1 7.8-4.1l2.5-.5v-.2zm-17.2 7.8c.2 0 .2.2.2.2.2 0 .5-.3.5-.5v-.2h-.2c-.2-.1-.5.2-.5.5zm.5-1.5c.2 0 .2 0 .2.2v-.2l1.8-1.7 1.8-1.1c0 0 .2 0 .2-.3v-.2h-.2c-1 .4-3.3 2.3-3.8 3.3z"/>
</g>

<!-- banner text -->
<path d="m152.1 251.6c0 .4.3.5.6.4h.2c.1 0 .6-.2.7-.2l2.3-.5.5-.2 1.9-.4c.1 0 .2-.1.2-.2v-.4c0-.3-.6-.2-.8-.2l-.5-.1c-.4-.2-.2-.6-.3-1l-.2-3.6v-.2c0-1.8 0-3.6 0-5.3 0-1.2 0-2.3 0-3.4 0-1.8 0-3.6.2-5.4.1-.5.4-.8.8-1.2.2-.2.9-.4.9-.7 0-.2-.3-.3-.4-.3-.1 0-.6 0-.6 0l-.5.1c-.1 0-.5.2-.5.2l-.8.1c-.1 0-.6.2-.7.2l-.3.1c-.7.1-1.3.1-2 .1l-.5.1c-.2 0-.5.4-.5.7 0 .8 1.8-.4 2.1 1l.3 1.2v2.1c0 0-.1.4-.1.5-.2.7-.8.9-1.5 1.1-.3.1-.6.1-.9.1-.3.1-.7.1-.9.3l-.5.1c-.2 0-.9.1-1.1.1-.3 0-.5-.2-.6-.4v-.6c0-.6.1-1.3.1-1.9 0-.1 0-.1 0-.2v-.4c0-.8.3-1.6 1.1-2.1.2-.2 1.3-.3 1.3-.7 0-.1-.1-.3-.2-.3-.2 0-.9.1-1.1.2h-.2l-1.8.6h-.1c-.2 0-.8.1-.8.1l-2 .1-.7.1c-.2 0-.5.4-.5.6 0 .1.1.2.2.3.5.5 1.2 0 1.7.4.1.1.1.3.2.4.2.7.3 1.3.3 2v.4l-.1.3v.5c0 .6 0 1.1 0 1.7 0 .4 0 .7 0 1.1v5.7 4.9l-.2 1.4c-.1.9-.9 1.4-1.6 1.9-.1.1-.2.3-.2.4 0 .1.1.3.3.3l1.2-.2c.2 0 .5-.1.7-.1.5-.1 1.1-.4 1.6-.5.8-.2 1.6-.3 2.4-.3 0 0 .1 0 .1 0 .2-.2.3-.3.3-.5 0-.5-.4-.4-.8-.5-.5-.1-.9-.6-.9-1.1v-1.4c0-.2 0-.2 0-.4 0-.4 0-.8 0-1.2v-.5c0-.1.1-.8.1-.9 0-2.5 0-4.9 0-7.4.1-.2.3-.4.5-.5.1 0 .6-.2.8-.2l1-.2c.6-.1 1.1-.3 1.7-.4 1.1-.2 1.6.3 1.6 1.4 0 1.1 0 2.2 0 3.3 0 .6 0 .9 0 1.5v2c0 1.4.1 2.8-.2 4.2-.1.7-.7 1.1-1.3 1.2-.8.2-1 .4-1 .7zm10.9-1.8c.9-.2 1.7-.3 2.5-.3h.1c.3-.1.5-.5.5-.8 0-.3-.2-.5-.6-.4-.2 0-.4.1-.6.1-.2 0-.4-.2-.5-.3-.1-.1-.2-.3-.2-.4 0-.1-.1-.9-.1-1.1v-.8c0-1.5.1-3.4.1-4.9 0-.7-.2-1.2-.2-1.9v-.2l.2-4.2v-.1c0-.3-.1-.5-.2-.7-.1-.1-.3-.1-.4-.1-.2 0-.2 0-.3.2l-1.5 1.5-.4.2c-.2.1-1 .7-1.2.8l-.3.3c-.2.2-.5.2-.5.4 0 .3.2.4.5.4.2 0 .5-.1.6-.1.4.1.6.4.6.8 0 .4 0 1.8 0 2.2v2.3c0 .1.1 1.2.1 1.3v1.4c0 .4-.1 2.4-.1 2.8-.1.5-.4 1.1-1 1.2-.1 0-.2 0-.3 0-.3.1-.5.4-.5.7 0 .2.3.4.5.4h.1l2.9-.8.2.1zm-2-20.2c0 1.2.3 2.3.9 2.5.1 0 .7-.1.8-.1.7-.1 1.1-.7 1.6-1.3.2-.2.5-1.5.5-1.7 0-.8-.4-1.7-1.5-1.4-1.2.1-2.3 1.2-2.3 2zm5.7 18.9c0 .3.3.5.6.4h.1l1.6-.5.6-.1c.5-.1 1-.1 1.5-.2.3-.1.6-.1.9-.2.5-.1 1-.1 1.5-.2.2 0 .5-.4.5-.6 0-.1-.1-.2-.2-.3-.3-.2-.5-.1-1-.1-.4 0-.7-.1-.9-.3-.2-.2-.2-.8-.2-1.1v-.5c-.1-1.4-.2-2.8-.2-4.2 0-.7 0-1.4 0-2.1v-.5l-.2-2.6.3-11.3v-1c0-.1-.3-.4-.5-.3-.1 0-.2.1-.3.1-.1 0-.3.4-.4.4 0 0-.1.3-.2.3-.5 1-1.3 1.3-2.1 2l-.6.4c-.2.2-.5.5-.5.7 0 .2.3.3.5.3.1 0 .5 0 .6-.1.2 0 .4.1.4.3 0 .5 0 1 0 1.5 0 .5 0 3.2 0 3.7v.6c0 .2.1 1.2.1 1.4v1.8c0 .3.1 2.5.1 2.8v.6c0 .3 0 .6 0 1 0 1.8 0 3.7-.1 5.6 0 .5-.1 1.3-.8 1.6-.3.1-.5.1-.8.2-.2.1-.3.2-.4.3.1.1.1.1.1.2zm7.6-1.5c0 .3.3.5.6.4h.1l1.6-.5.6-.1c.5-.1 1-.1 1.5-.2.3-.1.6-.1.9-.2.5-.1 1-.1 1.5-.2.2 0 .5-.4.5-.6 0-.1-.1-.2-.2-.3-.3-.2-.5-.1-1-.1-.4 0-.7-.1-.9-.3-.2-.2-.2-.8-.2-1.1v-.5c-.1-1.4-.2-2.8-.2-4.2 0-.7 0-1.4 0-2.1v-.5l-.2-2.6.3-11.3v-1c0-.1-.3-.4-.5-.3-.1 0-.2.1-.3.1-.1 0-.3.4-.4.4 0 0-.1.3-.2.3-.5 1-1.3 1.3-2.1 2l-.6.4c-.2.2-.5.5-.5.7 0 .2.3.3.5.3.1 0 .5 0 .6-.1.2 0 .4.1.4.3 0 .5 0 1 0 1.5 0 .5 0 3.2 0 3.7v.6c0 .2.1 1.2.1 1.4v1.8c0 .3.1 2.5.1 2.8v.6c0 .3 0 .6 0 1 0 1.8 0 3.7-.1 5.6 0 .5-.1 1.3-.8 1.6-.3.1-.5.1-.8.2-.2.1-.3.2-.4.3.1.1.1.1.1.2zm14.8-2.5c0 .3.3.4.6.4h.1l1.3-.5.3-.1c.4-.1.6-.1 1-.1l1.2-.2c1.4-.3 3.6-.8 5-1l1.2-.2c.2 0 .4 0 .6 0 .2 0 .4-.3.4-.4l.3-1.7.9-2.8v-.1c0-.4-.3-.4-.6-.4-.1 0-.7.1-1 .1-.2 0-.4.3-.4.5 0 .3.1.5.1.8 0 .7-.2 1.1-.4 1.8-.3.8-1.1 1.1-1.8 1.4-.2 0-2.3.5-2.6.6h-.1c-.3.1-.5-.1-.6-.3l-.2-1.1-.2-4.1v-.1c0-.3.1-.8.1-1.1 0-.2 0-.3 0-.5v-.9c0-1.4.1-2.8.1-4.2.1-.4.2-.7.6-.8l.6-.1c.2 0 .7-.1.8-.1h.1c0 0 .2.1.2.2 0 0 0 .1 0 .1v.1c-.2.6-.3 1.2-.3 1.8 0 .5.1.8.5 1.1.1.1.3.1.5.1.1 0 .3-.1.3-.3v-.1c0-.2 0-.4 0-.6v-.1l.3-1.5c.1-.1.3-1.1.4-1.3.1-.2.1-.3.1-.4 0-.4-.4-.6-.8-.6l-.4.1c-.5.1-1.3.3-1.8.4h-.1-.7c0 0-.1 0-.1-.1-.1 0-.2-.2-.3-.2-.1 0-.1-.2-.1-.3 0-.6-.1-3.4-.1-4v-.1c0-.2 0-.5.1-.7.1-.1.2-.3.4-.4.4-.2.7-.2 1.1-.3l.6-.1c.7.1 1.2-.4 1.8 0 .2.1.3.3.4.4l.3.9v.6c0 .1.3.2.4.2.2 0 .5-.2.7-.2.2-.1.3-.3.4-.4 0 0 0-.1 0-.1v-.2c0-.1 0-.2 0-.3-.4-.7-.6-1.5-.8-2.3 0-.2-.2-.3-.4-.3h-.2c-.4.1-.9.3-1.3.4-.5.1-.9.1-1.4.2-.4.1-.7.2-1.1.2h-.2l-2.7.4c-.1 0-1.1.2-1.2.2-.2 0-.9.1-1 0h-.2c-.3.1-.8.3-.8.7 0 .2.4.4.6.4.1 0 .3-.1.4 0 .4.1.7.3.7.7l.2 6.1v.5c0 .9-.1 1.9-.1 2.8 0 1.4.1 3.1.1 4.5v.5c0 .6-.1 3.2-.1 3.7 0 .5-.3 1.4-.8 1.6l-.7.3c0 .4-.2.7-.2.9zm24-4.6l1.2.1h.1c.3-.1.7-.4.7-.7 0-.1-.2-.3-.3-.3-.1-.1-.3 0-.5-.1-.2 0-.3-.1-.4-.3-.2-.3-.2-.8-.2-1.1 0-2.3.2-4.7.2-7.1v-.4l-.1-2.4c-.2-.8-.4-1.7-1.1-2.2l-1.1-.7c-.2-.1-.6-.2-.9-.2-.1 0-.2 0-.3 0l-1 .2c0 0-.1.1-.2.1-.1 0-.4.2-.4.2l-1.3.9-.6.6c-.1 0-.1 0-.1.1-.1 0-.3-.1-.3-.2l-.1-.5c0-.2-.2-.3-.4-.3-.1 0-.2.1-.3.1l-.6.5-1.8 1.2-.7.3c-.2.1-.3.2-.3.4 0 .6 1.2-.1 1.4.9 0 .9.2 4.8.2 5.6v1.4c0 .2.1 1.8.1 2.1v1.7c0 .5-.1 1-.6 1.3-.2.1-.5.1-.6.2-.1 0-.2.2-.2.3 0 0 0 .1 0 .1v.4c0 .2.3.2.4.2.2 0 .2 0 .5-.2.2 0 1.2-.3 1.5-.3l.5-.1c.6-.1 1.2-.1 1.8-.3l.6-.1c.2-.1.5-.3.5-.6 0-.4-.3-.2-.5-.3 0 0-.2-.1-.2-.1-.3-.1-.5 0-.7-.3v-.2c0-.4 0-.8 0-1.3 0-.1 0-.2 0-.4v-.2c0-.1-.1-.8-.1-1v-1.2c0-1.7.1-3.4.1-5.1v-1.6c0-.2 0-.3 0-.5 0-.6.3-1.2.8-1.6.1-.1.4-.3.5-.3l.6-.1c.1 0 .4 0 .5.1l.7.3c.3.2.5.5.5.9l.2 3v.1c0 .4 0 .8 0 1.2 0 1 .1 1.9.1 2.9v.9c0 .4-.1 2.5-.2 2.9-.1 1.1-1.4.9-1.4 1.6 0 .2.2.4.4.4 0 0 .3-.1.3-.1.1 0 .6-.2.7-.2l.4-.1c.8-.3 1.4-.3 2-.5zm14.8-2.7c.2 0 .3.1.5 0 .2 0 .5-.3.5-.6 0-.1 0-.2-.1-.2-.4-.4-.7-.2-1.1-.3-.3-.1-.5-.4-.6-.7-.1-1.2-.1-2.8-.1-4v-1.3c0-1.1.1-2.3.1-3.4 0-.3 0-.6 0-.9 0-.1 0-.2 0-.4v-3.5c0-.3 0-.5 0-.8 0-.4-.1-2.3-.1-2.7v-.3l.1-4.9v-.1c0-.4-.2-.7-.6-.6-.2 0-.4.1-.5.3l-1.1 1.4-1.9 1.3c-.2.1-.3.3-.3.5 0 .2.2.3.4.3.7-.1 1.3 0 1.4.7v.5c.1 1.2.2 2.2.2 3.4v.6l-.2 1c-.1.2-.2.4-.4.4-.1 0-.1 0-.2 0-.3-.1-.7-.4-1.1-.4h-1.4c0 0-.2 0-.3 0-.4.1-.5.1-.8.3-.2.1-.9.5-1.1.6-.7.4-1.2 1.1-1.5 1.8 0 .1-.1.2-.1.3l-.5 2.3c0 0-.1 1.7-.1 2.4v.3c0 .6.1 4.5.1 5 0 .1.1.4.1.5.1.2.3.9.3.9l.6 1.1c0 0 .2.3.3.4.6.5 1.4.7 2.3.6.4-.1.9-.2 1.3-.3.8-.3 1.4-1.1 1.9-1.7 0 0 .1-.1.1-.1.6-.1.2.8.8 1 .2.1.6-.1.8-.1.5-.1 1.1-.2 1.6-.3l.7-.3zm3.7 2.5c0 .2.2.3.4.3.1 0 .1 0 .2-.1.1-.1.4-.3.5-.3.9-.7 1.3-1.5 1.7-2.5 0 0 .1-.3.1-.3 0-.2.1-.9.2-1v-.4c0-1-.5-2.3-1.8-2.1l-1.3.3c-.9.2-1.4 1.3-1.4 2.1 0 .7.5 1.2 1.2 1.3.5.1 1.1-.1 1.3.5v.2c0 .3-.1.7-.3.9l-.6.8c-.2.1-.2.2-.2.3zm13.6-9.6l.4 1.1c0 .1.3.6.4.7.3.4.8.8 1.2 1.1.1 0 .5.3.6.3l1.5.4c.1 0 .3 0 .4 0h.2c.5-.1 1.5-.4 1.5-.4l.1-.1c.8-.6 1.7-1 2.4-1.7l.9-1.1c.5-.8 1.2-1.8 1.3-2.7l.3-2.5v-.6c0-.7 0-1.4 0-2.1 0-1.7.1-3.9.1-5.6v-.7l-.4-2.6-.4-.7c0-.3-.2-.7-.3-.9-.3-.6-.6-1-1.1-1.3l-.8-.4-1.4-.3h-1.4l-.3.1c-.2 0-.4.1-.6.2l-1.7.9-.5.4-.7.6c-.1.1-.5.5-.5.6l-.4.6-.8 1.6-.2.8-.4.8c0 0-.1.2-.1.2v.9c0 .9.1 1.7.1 2.6 0 .8 0 2.1 0 3v1.1c0 .1.1 1.4.1 1.6v.2c0 .5 0 .9 0 1.4v.6l.5 1.9zm12.8.9c0 .4.5.5.8.4.3-.1.7-.3 1-.5.2-.1.3-.1.5-.1.6-.1.7-.1 1.2-.2l.6-.1c.4-.1.7-.3.7-.7 0-.2-.1-.2-.2-.3-.4.1-1.1.2-1.3-.2 0 0 0-.2 0-.2v-.2c0 0 .1-.3.1-.4 0-.1.1-.6.1-.6 0-.1.1-.3.1-.3l1.3-3.6c.1-.2.2-.2.3-.2.3-.1.4.2.5.4l1.5 3c.1.3.1.7.2.9 0 1-1.2.8-1.1 1.5 0 .3.2.4.5.4.2 0 .2-.1.4-.2l1.6-.4c0 0 .3-.1.4-.1.5-.1 1.3-.1 1.8-.2h.2l.9-.1c.2 0 .5-.6.5-.8 0-.1 0-.1 0-.1-.1-.1-.3-.2-.5-.3-.8-.1-1.1-.3-1.4-.6-.2-.3-.5-.7-.6-1 0 0 0-.1 0-.1l-1.7-3.3c-.1-.1-.1-.5-.1-.7 0-.8.4-1.6 1.1-3.6l1-2.7c0 0 .3-.8.4-.9.4-.5.7-.6 1.3-.8.2-.1.3-.3.4-.4 0 0 .1-.1.1-.2 0 0 0-.1 0-.1-.1-.1-.3-.3-.5-.2h-.1l-.7.3c-.2.1-.4.1-.6.2l-.9.3-.5.1h-1.6-.1c-.2 0-.5.3-.5.5 0 .1.1.2.2.3.3.2.6 0 .9.1.4.1.9.3.9.8l-.1.6-1.4 3.7c-.1.2-.2.2-.4.3-.1 0-.1 0-.2 0l-.3-.3c0 0-.4-.6-.5-.8 0-.1-.2-.4-.2-.5l-.2-.2-1-2.1v-.4c0-.6 1.3-.5 1.2-1.3 0-.2-.3-.4-.5-.4-.1 0-.2.1-.4.1l-1.2.2-.3.1c-.1 0-1 .2-1.3.3l-.6.1c-.8.2-.6 0-1.4.2-.2 0-.5.4-.5.6 0 .2.3.5.5.5 1 0 1.6.7 1.9 1.4l.4 1c.1.2.2.3.2.4.5.8.8 1.5 1.2 2.4l.1.3c0 .1 0 .2 0 .3-.1.3-.3 1-.3 1l-2 5.7-.4.5c0 0-.1 0-.1.1-.2.2-.8.4-1.2.5s-.2.6-.1.9zm14.1-2.8c0 .3.2.5.5.5h.1l.5-.2 2.1-.6h.1c.9-.2 2.4-.4 3.4-.5h.1c.1 0 .5-.2.5-.4v-.1c0-.6-1.3-.4-1.7-.6-.3-.2-.5-.5-.6-1 0-1.1 0-2.2 0-3.2 0-1.1 0-2.2 0-3.2 0-.4 0-.8 0-1.2v-.2c0-.1.1-.8.1-.9v-.6c0-.1.1-.3.1-.4 0-.1 0-.6 0-.7.1-.3.2-.7.5-1 .4-.3 1.2-.4 1.6-.5h.2c.2 0 .4 0 .6 0 .3-.1.7-.4.7-.7s-.3-.6-.7-.5c-.3.1-.6.2-.9.2-.3.1-.5 0-.8.1-.2 0-.4.1-.5.1-.5.1-.9-.2-.9-.7v-2.5l-.3-1.3-.2-.5-.4-1.9v-.4c0-.1.1-.5.1-.6 0 0 0 0 0-.1.1-.1.3-.5.3-.6.4-.5.8-.7 1.3-.8s.9-.1 1.3.1c.1 0 .3.2.3.2l.3.6c0 .1 0 .1 0 .2 0 .3-.1.6-.3.8l-.8 1c-.2.3-.3.6-.3.9 0 .7.6 1.3 1.4 1.1 1.4-.3 1.9-1.5 1.9-2.7 0-1-.4-1.8-.8-2.6-.7-1-2.7-.7-3.9-.5-2 .4-3.1 1.6-3.7 3.6 0 .1-.1.3-.1.4v1.3c0 0 0 .2 0 .3l.5 2.4c.2.5.2 2.3 0 2.5-.2.2-.3.4-.6.5-.2 0-.2 0-.5.2-.1 0-.6.1-.7 0h-.1c-.3.1-.6.5-.6.8 0 .4.4.5.7.5.3-.1.5-.2.8-.2.5-.1.6 0 .8.5 0 .1.1.4.1.4v.7c0 .1.1.2.1.3 0 .1 0 .2 0 .2 0 0 0 .2 0 .2 0 1.5 0 2.6 0 4.1v2c0 .4-.1 2.3-.1 2.6 0 .5-.4 1.1-.9 1.4.1.5-.6.6-.6 1.2zm9.3-6.5c0 .4 0 .8.2 1.2l.8 2.2c.3.8 1.3 1 2.1 1.2.1 0 .6.1.6.1l1.6-.1 1.3-.5c0 0 .6-.3.8-.5 0 0 .1 0 .1-.1l1.2-1.1c.1-.1.2-.2.3-.3l.2-.5c.1 0 .2-.5.2-.5 0 0 .3-.4.3-.5 0 0 0-.1 0-.1.3-1.1.4-2.2.4-3.3 0-.3-.1-.6-.1-1 0-.6.1-2.2.1-2.8v-.8c0-.3-.1-1.3-.1-1.4l-.7-2c-.1-.3-.5-.5-.7-.6-.2-.1-.8-.3-.9-.4-.1 0-.4-.1-.5-.1-.5-.1-1 0-1.5.1l-.4.1c-.4.1-1.3.3-1.3.3l-.3.1-1.7.9c0 0-.3.2-.4.3l-.4.4-.2.2-.3.6c-.1.2-.3.6-.3.7l-.5 1.5c0 0-.1.5-.1.6v.1c0 1.4.1 3.8.1 5.2.1.2.1.5.1.8zm16.3 2c.5-.1 1-.1 1.5-.2.2 0 .3-.3.3-.4 0-.2 0-.3-.2-.4l-.3.1c0 0-.2 0-.2 0-.6 0-1.1-.3-1.1-1.1-.1-.2-.1-.4-.1-.6 0-.3 0-.5 0-.8v-.1c0-.3 0-1.7 0-2v-.4c0-1.2 0-2.7.1-3.9 0-.1 0-1.2 0-1.3v-1.6c.1-.4 0-.9.4-1.2.1-.1.5-.5.7-.6.2 0 .4 0 .5.1.3.2.4.2.5.5.2.8.1 1.8 1.2 1.7l.3-.1c.1 0 .5-.2.6-.3.8-.5 1.1-1.1 1.1-2 0-.2-.2-.6-.3-.8-.3-.7-1.3-1.1-2.2-.9-.8.1-1.4.4-2 .9l-.8 1c-.1 0-.1 0-.1.1h-.1l-.1-.1v-1.3c0-.2-.3-.2-.5-.2-.7.1-.9.7-1.5 1.1l-.8.6c-.2.1-.3.1-.5.2 0 0-.3.2-.3.2-.1.1-.7.3-.8.4-.1.1-.1.2-.1.3 0 .2.2.3.3.2l.3-.1c.2 0 .4-.1.6-.1.2 0 .4.1.5.2l.2.5c0 0 0 .1 0 .1 0 1.1.1 2.1.1 3.2 0 1 0 2.5 0 3.5 0 .8.1 1.3.1 2.1v.7c0 .2-.1 1.2-.1 1.4-.1.9-.8 1.5-1.1 1.6-.1 0-.2 0-.3 0-.2 0-.3.2-.3.4 0 .1.1.3.2.3l.8-.1c.7-.1 1.4-.3 2.1-.5.3-.1.7 0 .9-.1.1-.1.3-.2.5-.2zm17.6-3.5c.2 0 .3.1.5 0 .2 0 .5-.3.5-.6 0-.1 0-.2-.1-.2-.4-.4-.7-.2-1.1-.3-.3-.1-.5-.4-.6-.7-.1-1.2-.1-2.8-.1-4v-1.3c0-1.1.1-2.3.1-3.4 0-.3 0-.6 0-.9 0-.1 0-.2 0-.4v-3.5c0-.3 0-.5 0-.8 0-.4-.1-2.3-.1-2.7v-.3l.1-4.9v-.1c0-.4-.2-.7-.6-.6-.2 0-.4.1-.5.3l-1.1 1.4-1.9 1.3c-.2.1-.3.3-.3.5s.2.3.4.3c.7-.1 1.3 0 1.4.7v.5c.1 1.2.2 2.2.2 3.4v.6l-.2 1c-.1.2-.2.4-.4.4-.1 0-.1 0-.1 0-.3-.1-.7-.4-1.1-.4h-1.4c0 0-.2 0-.3 0-.4.1-.5.1-.8.3-.2.1-.9.5-1.1.6-.7.4-1.2 1.1-1.5 1.8 0 .1-.1.2-.1.3l-.5 2.3c0 0-.1 1.7-.1 2.4v.3c0 .6.1 4.5.1 5 0 .1.1.4.1.5.1.2.3.9.3.9l.6 1.1c0 0 .2.3.3.4.6.5 1.4.7 2.3.6.4-.1.9-.2 1.3-.3.8-.3 1.4-1.1 1.9-1.7 0 0 .1-.1.1-.1.6-.1.2.8.8 1 .2.1.6-.1.8-.1.5-.1 1.1-.2 1.6-.3l.6-.3zm-95.4 14.4c0-1.5.1-4 .1-5.5 0-.4 0-.7 0-1v-.1l.2-1.7c0-.1.1-.5.2-.7.2-.7.7-1.8 1.6-2 .9-.2 1.5.6 1.8 1.2 0 .1.2.4.2.4l.4 3.2v.2c0 .9-.1 2.3 0 3.2 0 .2 0 .4 0 .6 0 .3 0 .9 0 1.2 0 1.5-.7 3.1-2.4 3.4-.3.1-.5.1-.8 0-1.1-.1-1.3-1.6-1.3-2.4zm28-8.1c0-1.1.1-2.2.1-3.2 0-1.3-.1-3-.1-4.3 0-.6 0-1.2 0-1.8 0-.4 0-.7 0-1.1v-.2c0-.2 0-1.5.1-1.7.1-1.1.8-2.2 1.8-2.8.4-.2.8-.3 1.3-.4.3-.1.6-.1.9.1l.6.5c.5.4.7 1.1.8 1.8 0 .5.1 2.9.1 3.4v.3c0 .4-.1.9-.1 1.4 0 .9.1 2.3.1 3.3 0 1-.1 2-.1 3 0 .7.1 1.5.1 2.2v.2l-.3 2.6c0 .4-.2.8-.4 1.1-.1.2-.1.4-.2.6-.2.3-.5.4-.8.6-.2.1-.1.1-.3.2-.4.1-.7.2-1.1.2-1 .2-1.4-.2-1.8-1 0-.1-.1-.3-.1-.3l-.4-4.4v-.3zm36.7-3c0-.3 0-.6 0-.8v-.4c-.1-1.3-.2-2.7-.2-4v-1.5c0-.9.2-3.1.2-3.2v-.4c0-.1 0-.7 0-.9 0-.2.2-.5.3-.7.2-.3.6-.5.9-.7.2-.1.4-.1.5-.2.4-.1 1.2-.1 1.3.2l.5 1.1.2 3.1c0 1.6.1 4.1.1 5.6v.4c0 .3 0 1.3 0 1.5 0 0-.2.7-.3 1-.2.5-1.1 1.4-1.7 1.5-1.1.2-1.8-.8-1.8-1.6zm22.7-5.8c0-1.5.1-4 .1-5.5 0-.4 0-.7 0-1v-.2l.2-1.7c0-.1.1-.5.2-.7.2-.7.7-1.8 1.6-2 .9-.2 1.5.6 1.8 1.2 0 .1.2.4.2.4l.4 3.2v.2c0 .9-.1 2.3 0 3.2 0 .2 0 .4 0 .6 0 .3 0 .9 0 1.2 0 1.5-.7 3.1-2.4 3.4-.3.1-.5.1-.8 0-1.1 0-1.3-1.6-1.3-2.3z"/>



</svg>